<svg xmlns="http://www.w3.org/2000/svg" width="44" height="44" viewBox="0 0 44 44"><g transform="translate(0.178 0.178)"><circle cx="22" cy="22" r="22" transform="translate(-0.178 -0.178)" fill="#f94616"/><path d="M152.823,103.972a22.171,22.171,0,0,0-.5-4.671l-9.685-9.685L118.9,116.827l9.061,9.061a22.318,22.318,0,0,0,2.768.172A22.089,22.089,0,0,0,152.823,103.972Z" transform="translate(-109.001 -82.239)" fill="#db2c09"/><rect width="21.312" height="25.799" transform="translate(12.329 7.377)" fill="#fec007"/><rect width="11.86" height="25.799" transform="translate(21.781 7.377)" fill="#feb200"/><circle cx="7.55" cy="7.55" r="7.55" transform="translate(16.082 11.045)" fill="#fed44f"/><path d="M277.978,132.116h0v15.1h0a7.55,7.55,0,1,0,0-15.1Z" transform="translate(-254.346 -121.072)" fill="#fed640"/><path d="M113.5,115.415h4.961v-25.8h-2.345a2.6,2.6,0,0,0-2.6,2.6Z" transform="translate(-104.062 -82.239)" fill="#fe9f00"/><circle cx="1.726" cy="1.726" r="1.726" transform="translate(21.906 12.92)" fill="#303f9e"/><path d="M277.978,153.854h0v3.451h0a1.726,1.726,0,1,0,0-3.451Z" transform="translate(-254.346 -140.934)" fill="#283592"/><rect width="2.739" height="7.212" transform="translate(22.262 17.056)" fill="#303f9e"/><rect width="1.372" height="7.212" transform="translate(23.63 17.056)" fill="#283592"/><path d="M115.873,365.862H137.7v-4.746h-21.83a2.373,2.373,0,0,0-2.373,2.373h0A2.373,2.373,0,0,0,115.873,365.862Z" transform="translate(-104.062 -330.313)" fill="#fef5e0"/><rect width="11.86" height="4.746" transform="translate(21.781 30.804)" fill="#fedfb1"/></g></svg>