<svg xmlns="http://www.w3.org/2000/svg" width="44" height="44" viewBox="0 0 44 44"><g transform="translate(-0.117 -0.117)"><g transform="translate(-0.034 -0.034)"><g transform="translate(0.151 0.151)"><circle cx="22" cy="22" r="22" fill="#ffce00"/></g></g><path d="M166.167,126.409a22.221,22.221,0,0,0-.289-3.583l-8.641-8.641s-24.1,22.245-23.687,21.929l12.295,12.295A22.069,22.069,0,0,0,166.167,126.409Z" transform="translate(-122.05 -104.36)" fill="#ffa300"/><g transform="translate(8.913 3.767)"><path d="M139.641,86.489l-9.192,6.617-9.192-6.618a7.46,7.46,0,0,1-2.651-5.618V65.886l11.843-5.462,11.843,5.462V80.872A7.46,7.46,0,0,1,139.641,86.489Z" transform="translate(-117.312 -59)" fill="#7584f2"/><path d="M256,60.424h0V93.106h0l9.192-6.618a7.46,7.46,0,0,0,2.651-5.618V65.886Z" transform="translate(-242.864 -59)" fill="#606aea"/><path d="M116.742,79.6l-10-7.2-.045-.039a8.793,8.793,0,0,1-3.095-6.593V49.963L116.742,43.9l13.136,6.058V65.776a8.793,8.793,0,0,1-3.095,6.593l-.045.039Zm-8.386-9.224,8.386,6.037,8.386-6.037a6.2,6.2,0,0,0,2.164-4.6V51.618l-10.55-4.866-10.55,4.866V65.776a6.2,6.2,0,0,0,2.164,4.605Z" transform="translate(-103.606 -43.905)" fill="#fff"/><path d="M256,79.6l10-7.2.045-.039a8.793,8.793,0,0,0,3.095-6.593V49.963L256,43.9v2.848l10.55,4.866V65.776a6.2,6.2,0,0,1-2.164,4.6L256,76.419Z" transform="translate(-242.864 -43.905)" fill="#e9edf5"/></g><g transform="translate(16.742 20.218)"><path d="M205.041,241.834H194.426v-1.782a5.308,5.308,0,1,1,10.615,0Z" transform="translate(-194.426 -234.745)" fill="#a3d4ff"/></g><g transform="translate(22.05 20.218)"><path d="M256,241.834h5.308v-1.782A5.308,5.308,0,0,0,256,234.745Z" transform="translate(-256 -234.745)" fill="#87c7ff"/></g><g transform="translate(18.574 12.389)"><circle cx="3.476" cy="3.476" r="3.476" fill="#ffbeaa"/></g><g transform="translate(22.05 12.389)"><path d="M256,150.873a3.476,3.476,0,0,0,0-6.952Z" transform="translate(-256 -143.921)" fill="#faa68e"/></g></g></svg>