<svg xmlns="http://www.w3.org/2000/svg" width="44.418" height="32.72" viewBox="0 0 44.418 32.72">
  <g id="Group_10324" data-name="Group 10324" transform="translate(-158.02 -503.592)">
    <g id="right-arrow" transform="translate(158.02 462.246)">
      <g id="Group_2337" data-name="Group 2337" transform="translate(0 41.346)">
        <path id="Path_1029" data-name="Path 1029" d="M43.708,56.178l-16.041-14.2a2.667,2.667,0,0,0-3.438,0l-1.456,1.29a2.02,2.02,0,0,0-.71,1.522,2.058,2.058,0,0,0,.71,1.54l9.358,8.3H2.4A2.25,2.25,0,0,0,0,56.747V58.57a2.323,2.323,0,0,0,2.4,2.21H32.237l-9.464,8.351a1.964,1.964,0,0,0,0,3.023l1.456,1.286a2.668,2.668,0,0,0,3.438,0l16.041-14.2a2,2,0,0,0,0-3.055Z" transform="translate(0 -41.346)" fill="#fcfcec"/>
      </g>
    </g>
  </g>
</svg>
