<svg id="email_3_" data-name="email (3)" xmlns="http://www.w3.org/2000/svg" width="45.287" height="45.287" viewBox="0 0 45.287 45.287">
  <path id="Path_1227" data-name="Path 1227" d="M45.287,22.643A22.643,22.643,0,1,1,22.643,0,22.643,22.643,0,0,1,45.287,22.643Zm0,0" fill="#09ce67"/>
  <path id="Path_1228" data-name="Path 1228" d="M126.379,101.343a22.848,22.848,0,0,0-.238-3.286L114.42,86.336,88.961,113.85l9.523,9.523a22.658,22.658,0,0,0,27.9-22.03Zm0,0" transform="translate(-81.092 -78.699)" fill="#1aad5c"/>
  <path id="Path_1229" data-name="Path 1229" d="M88.961,228.066h29.55v14.978H88.961Zm0,0" transform="translate(-81.092 -207.894)" fill="#707789"/>
  <path id="Path_1230" data-name="Path 1230" d="M255.809,228.066H270.6v14.978H255.809Zm0,0" transform="translate(-233.182 -207.894)" fill="#636978"/>
  <path id="Path_1231" data-name="Path 1231" d="M97.563,307.748l-8.6,6.13h29.55l-8.6-6.13a10.636,10.636,0,0,0-12.346,0Zm0,0" transform="translate(-81.092 -278.728)" fill="#414952"/>
  <path id="Path_1232" data-name="Path 1232" d="M262,307.748a10.637,10.637,0,0,0-6.173-1.975h-.017v8.1H270.6Zm0,0" transform="translate(-233.182 -278.728)" fill="#23272b"/>
  <path id="Path_1233" data-name="Path 1233" d="M88.961,115.465l14.775-10.926,14.775,10.926-14.792,10.913Zm0,0" transform="translate(-81.092 -95.292)" fill="#414952"/>
  <path id="Path_1234" data-name="Path 1234" d="M270.6,115.465l-14.775-10.926-.017.012v21.827Zm0,0" transform="translate(-233.182 -95.292)" fill="#23272b"/>
  <path id="Path_1235" data-name="Path 1235" d="M140.988,86.336l-5.781,5.781v9.78l10.667,7.889,10.7-7.889V86.336Zm0,0" transform="translate(-123.248 -78.699)" fill="#fff"/>
  <path id="Path_1236" data-name="Path 1236" d="M255.809,86.336v23.45l10.7-7.889V86.336Zm0,0" transform="translate(-233.182 -78.699)" fill="#e9edf5"/>
  <path id="Path_1237" data-name="Path 1237" d="M140.988,92.117V86.336l-5.781,5.781Zm0,0" transform="translate(-123.248 -78.699)" fill="#414952"/>
  <path id="Path_1238" data-name="Path 1238" d="M274.41,99.969l-3.6-3.425-3.6,3.425V86.336h7.191Zm0,0" transform="translate(-243.583 -78.699)" fill="#fe6a16"/>
</svg>
