<svg id="Component_3_1" data-name="Component 3 – 1" xmlns="http://www.w3.org/2000/svg" width="37" height="37" viewBox="0 0 37 37">
  <g id="email_1_" data-name="email (1)" transform="translate(0.49 0.49)">
    <g id="XMLID_590_">
      <g id="Group_10316" data-name="Group 10316">
        <g id="XMLID_1306_">
          <g id="XMLID_1307_">
            <g id="XMLID_1308_">
              <g id="XMLID_1309_">
                <g id="XMLID_1310_">
                  <g id="XMLID_1317_">
                    <g id="XMLID_1320_">
                      <g id="XMLID_1322_">
                        <g id="XMLID_1327_">
                          <g id="XMLID_1328_">
                            <g id="XMLID_1330_">
                              <g id="XMLID_1345_">
                                <g id="XMLID_1346_">
                                  <g id="XMLID_1347_">
                                    <circle id="Ellipse_151" data-name="Ellipse 151" cx="18.5" cy="18.5" r="18.5" transform="translate(-0.49 -0.49)" fill="#fedd55"/>
                                  </g>
                                </g>
                              </g>
                            </g>
                          </g>
                        </g>
                      </g>
                    </g>
                  </g>
                </g>
              </g>
            </g>
          </g>
        </g>
      </g>
    </g>
    <path id="Path_1151" data-name="Path 1151" d="M133.516,58.143a18.312,18.312,0,0,0-.469-4.129l-8.963-8.963-2.756,1.325-3.442-3.425L104.454,70.443l5.018,5.018a18.267,18.267,0,0,0,24.044-17.317Z" transform="translate(-97.005 -39.888)" fill="#fcc63d"/>
    <g id="Group_10321" data-name="Group 10321" transform="translate(6.267 1.833)">
      <g id="Group_10320" data-name="Group 10320">
        <path id="Path_1152" data-name="Path 1152" d="M97.188,26.995,87.879,38.736l11.989,12.3,11.989-12.3-9.309-11.741a3.42,3.42,0,0,0-5.359,0Z" transform="translate(-87.879 -25.7)" fill="#0768dd"/>
        <g id="Group_10319" data-name="Group 10319" transform="translate(11.989 0)">
          <g id="Group_10318" data-name="Group 10318">
            <g id="Group_10317" data-name="Group 10317">
              <path id="Path_1153" data-name="Path 1153" d="M267.988,38.736l-2.952,3.028L256,51.034V25.7a3.4,3.4,0,0,1,2.68,1.295l1.468,1.852,4.889,6.166Z" transform="translate(-256 -25.7)" fill="#0059b2"/>
            </g>
          </g>
        </g>
        <path id="Path_1154" data-name="Path 1154" d="M126.271,72.4h18.074V94.875H126.271Z" transform="translate(-123.533 -69.073)" fill="#fff"/>
        <path id="Path_1155" data-name="Path 1155" d="M256.005,72.4h8.823V94.875h-8.823Z" transform="translate(-244.016 -69.073)" fill="#eae1dc"/>
        <path id="Path_1156" data-name="Path 1156" d="M99.868,218.69,87.879,208.508v13.185a3.237,3.237,0,0,0,3.237,3.237h17.5a3.237,3.237,0,0,0,3.237-3.237V208.508Z" transform="translate(-87.879 -195.472)" fill="#238cf8"/>
        <path id="Path_1157" data-name="Path 1157" d="M267.988,208.51V221.7a3.237,3.237,0,0,1-3.237,3.237H256v-6.241l9.037-7.675Z" transform="translate(-244.011 -195.474)" fill="#0768dd"/>
      </g>
      <path id="Path_1158" data-name="Path 1158" d="M194.392,131.343a1.339,1.339,0,0,1-.537.656,1.055,1.055,0,0,1-.535.14.4.4,0,0,1-.273-.127.644.644,0,0,1-.18-.449l.007-1.33c0-.035,0-.071,0-.106s0-.044,0-.067l.015-2.983-1.07-.005,0,.708a2.069,2.069,0,0,0-1.216-.385,2.565,2.565,0,0,0-2.42,2.746,2.642,2.642,0,0,0,2.372,2.841,2.069,2.069,0,0,0,1.448-.607,1.665,1.665,0,0,0,.289.392,1.453,1.453,0,0,0,1.031.443,2.232,2.232,0,0,0,2.066-1.47,4.515,4.515,0,0,0,.253-2.989l0-.017a5.039,5.039,0,0,0-9.7,2.733,5.069,5.069,0,0,0,4.734,3.761l.535.015.03-1.069-.535-.015a3.994,3.994,0,0,1-3.729-2.963,3.969,3.969,0,0,1,5.689-4.518,3.99,3.99,0,0,1,1.214.984,3.95,3.95,0,0,1,.733,1.37,2.979,2.979,0,0,1-.215,2.312Zm-3.84.568c-.626,0-1.3-.677-1.3-1.772a1.516,1.516,0,0,1,1.35-1.676c.7,0,1.19.663,1.2,1.618v.145c-.037.938-.584,1.685-1.252,1.685Z" transform="translate(-178.791 -118.055)" fill="#ff807d"/>
      <path id="Path_1159" data-name="Path 1159" d="M259.613,131.344a1.34,1.34,0,0,1-.538.656,1.056,1.056,0,0,1-.534.14.4.4,0,0,1-.273-.128.644.644,0,0,1-.18-.449l.022-4.486-1.07,0,0,.708A2.056,2.056,0,0,0,256,127.4v1.077c.6.1,1.013.732,1.025,1.6v.145A1.7,1.7,0,0,1,256,131.882v1.086a2.088,2.088,0,0,0,1.221-.594,1.639,1.639,0,0,0,.289.392,1.454,1.454,0,0,0,1.031.443,2.231,2.231,0,0,0,2.066-1.47,4.514,4.514,0,0,0,.253-2.989.146.146,0,0,0-.005-.016A5.045,5.045,0,0,0,256,125.148v1.07a3.962,3.962,0,0,1,3.828,2.814,3.351,3.351,0,0,1-.215,2.313ZM256,135.23l.426.011.03-1.069L256,134.16Z" transform="translate(-244.011 -118.056)" fill="#fc3e53"/>
    </g>
  </g>
</svg>
