<svg xmlns="http://www.w3.org/2000/svg" width="33.752" height="33.924" viewBox="0 0 33.752 33.924"><g transform="translate(-1.292 0)"><path d="M32.768,25.467A16.858,16.858,0,1,0,18.3,33.923,16.727,16.727,0,0,0,25.782,32.1l4.473-.01a2.533,2.533,0,0,0,2.521-2.545Z" transform="translate(0 0)" fill="#37a9bf"/><path d="M16.582,1.126a16.971,16.971,0,0,0,0,33.774V1.126Z" transform="translate(0 -1.052)" fill="#52dddc"/><path d="M34.334,21.837a17.043,17.043,0,0,0,0-9.749H25.454L31.26,6.282a17.117,17.117,0,0,0-2.4-2.424L23.043,9.676V.724a16.839,16.839,0,0,0-9.749,0V9.676L7.465,3.848a17.019,17.019,0,0,0-2.4,2.424l5.816,5.816H2a17.1,17.1,0,0,0,0,9.749h8.879L5.076,27.643a17.11,17.11,0,0,0,2.4,2.422l5.818-5.818V33.2a16.782,16.782,0,0,0,9.749,0V24.248l7.776,7.776a2.537,2.537,0,0,0,1.958-2.48v-.386l-7.321-7.321h8.88Z" transform="translate(0 -0.001)" fill="#e3e3e3"/><path d="M16.883,34.568V.744a16.75,16.75,0,0,0-3.589.669v8.957L7.465,4.542a17.019,17.019,0,0,0-2.4,2.424l5.816,5.816H2a17.1,17.1,0,0,0,0,9.749h8.879L5.076,28.337a17.11,17.11,0,0,0,2.4,2.422l5.818-5.818v8.951A16.649,16.649,0,0,0,16.883,34.568Z" transform="translate(0 -0.695)" fill="#fff"/><path d="M34.822,14.212h-13.9V.226a16.873,16.873,0,0,0-5.5,0V14.212H1.514a17.149,17.149,0,0,0,0,5.5h13.9V33.7a16.808,16.808,0,0,0,5.5,0V19.711h13.9a17.085,17.085,0,0,0,0-5.5Z" transform="translate(-0.001 0)" fill="#aa315e"/><path d="M18.169,0a16.912,16.912,0,0,0-2.75.225V14.212H1.514a17.148,17.148,0,0,0,0,5.5h13.9V33.7a16.757,16.757,0,0,0,2.75.226Z" transform="translate(-0.001 0)" fill="#df3f7c"/></g></svg>