<svg data-name="Component 2 – 1" xmlns="http://www.w3.org/2000/svg" width="33.35" height="33.35"><defs><linearGradient id="a" x1=".15" y1=".15" x2=".915" y2=".915" gradientUnits="objectBoundingBox"><stop offset="0" stop-color="#2aa4f4"/><stop offset="1" stop-color="#007ad9"/></linearGradient></defs><g data-name="Group 10325"><g data-name="Group 2345"><g data-name="Group 10324"><path data-name="Path 1032" d="M20.675 4A16.675 16.675 0 1037.35 20.675 16.675 16.675 0 0020.675 4z" transform="translate(-4 -4)" fill="url(#a)"/><path data-name="Path 1033" d="M19.049 20.236h4.618l.725-4.691h-5.343v-2.568c0-1.949.637-3.677 2.46-3.677h2.929V5.21a24.894 24.894 0 00-3.66-.221c-4.3 0-6.813 2.268-6.813 7.436v3.121H9.55v4.691h4.415v12.894a18.049 18.049 0 002.669.219 17.952 17.952 0 002.415-.182z" fill="#fff"/></g></g></g></svg>