<svg id="icons8-google" xmlns="http://www.w3.org/2000/svg" width="33.348" height="33.348" viewBox="0 0 33.348 33.348">
  <g id="Group_2344" data-name="Group 2344">
    <path id="Path_1034" data-name="Path 1034" d="M37.023,17.408H35.68v-.069H20.674v6.67H30.1A10.012,10.012,0,1,1,27.311,13.2l4.716-4.716a16.657,16.657,0,1,0,5.321,12.187A16.787,16.787,0,0,0,37.023,17.408Z" transform="translate(-4 -4)" fill="#fbc02d"/>
    <path id="Path_1035" data-name="Path 1035" d="M6.306,12.913l5.478,4.018A9.984,9.984,0,0,1,27.694,13.2L32.41,8.487a16.641,16.641,0,0,0-26.1,4.426Z" transform="translate(-4.384 -4)" fill="#e53935"/>
    <path id="Path_1036" data-name="Path 1036" d="M21.039,41.348A16.6,16.6,0,0,0,32.218,37.02l-5.161-4.367a9.978,9.978,0,0,1-15.425-4.6L6.2,32.243A16.661,16.661,0,0,0,21.039,41.348Z" transform="translate(-4.365 -8)" fill="#4caf50"/>
    <path id="Path_1037" data-name="Path 1037" d="M40.349,20.069,40.336,20H24v6.67h9.423a10.038,10.038,0,0,1-3.407,4.644l0,0,5.161,4.367a16.129,16.129,0,0,0,5.495-12.344A16.787,16.787,0,0,0,40.349,20.069Z" transform="translate(-7.326 -6.661)" fill="#1565c0"/>
  </g>
</svg>
