<svg xmlns="http://www.w3.org/2000/svg" width="33.348" height="33.348"><g data-name="Group 2344"><path data-name="Path 1034" d="M33.023 13.408H31.68v-.069H16.674v6.67H26.1A10.012 10.012 0 1123.311 9.2l4.716-4.716a16.657 16.657 0 105.321 12.187 16.787 16.787 0 00-.325-3.263z" fill="#fbc02d"/><path data-name="Path 1035" d="M1.922 8.913L7.4 12.931A9.984 9.984 0 0123.31 9.2l4.716-4.713a16.641 16.641 0 00-26.1 4.426z" fill="#e53935"/><path data-name="Path 1036" d="M16.674 33.348a16.6 16.6 0 0011.179-4.328l-5.161-4.367a9.978 9.978 0 01-15.425-4.6l-5.432 4.19a16.661 16.661 0 0014.839 9.105z" fill="#4caf50"/><path data-name="Path 1037" d="M33.023 13.408l-.013-.069H16.674v6.67h9.423a10.038 10.038 0 01-3.407 4.644l5.161 4.367a16.129 16.129 0 005.495-12.344 16.787 16.787 0 00-.323-3.268z" fill="#1565c0"/></g></svg>