<svg xmlns="http://www.w3.org/2000/svg" width="44" height="43.999" viewBox="0 0 44 43.999"><g transform="translate(0 -0.007)"><path d="M84.851,69.824a20.442,20.442,0,0,0-7.28-15.662c-3.566-3.01-13.584-3.355-13.584-3.355l-7.261.042c-.054.023-.119.007-.173.03C49.437,53.967,44.819,61.284,44.819,69.79c0,11.314,8.436,19.013,19.75,19.013,3.4,0,6.406.678,9.229-.789a20.484,20.484,0,0,0,11.053-18.19Z" transform="translate(-40.851 -46.303)" fill="#94ccd4"/><path d="M197.221,39.031a26.728,26.728,0,0,1-5.158,2.9c-2.3.673-5.3-.753-5.911,2.641a13.333,13.333,0,0,1-.174,1.858,4.792,4.792,0,0,1-.7,1.8c-.35.542-1.28.7-1.822,1.072a3.68,3.68,0,0,1-4.31.25l-.124-.066c-2.675-1.311-4.247-4.327-1.473-6.53,1.823-1.505,1.547-4.16.273-5.819l-.767-.887c.6-.246.353-.963.975-1.153a20.523,20.523,0,0,1,19.191,3.936Z" transform="translate(-160.501 -31.172)" fill="#b7e546"/><path d="M359.444,148.892a6.379,6.379,0,0,0-1.9-4.5c-1.027-1.176-1.383-1.876-2.795-.578-1.338,1.665-.018,3.731-2.863,6.57a2.628,2.628,0,0,0-.758,1.935s0-.127,0-.127a3.173,3.173,0,0,0,3.055,3.22C356.413,155.413,359.444,152.8,359.444,148.892Z" transform="translate(-320.042 -130.442)" fill="#b7e546"/><path d="M346.559,148.2a2.631,2.631,0,0,0-.759,1.935l0,0a3.684,3.684,0,0,0,2.787,3.1,3.327,3.327,0,0,1-.874.123,3.759,3.759,0,0,1-3.684-3.225l0,0a2.631,2.631,0,0,1,.759-1.935c2.845-2.838,1.2-5.056,2.535-6.72a1.866,1.866,0,0,1,2.288-.38,2.709,2.709,0,0,0-.517.38C347.755,143.141,349.4,145.359,346.559,148.2Z" transform="translate(-313.571 -128.385)" fill="#abd641"/><path d="M301.167,1.557V11.783l-.652.619c0,.856-.973.985-1.828.985l-4.677-.035a1.033,1.033,0,0,0-.606.2l-3.86,2.68a.516.516,0,0,1-.819-.418l.362-1.289a1.033,1.033,0,0,0-1.033-1.033h-1.239a1.549,1.549,0,0,1-1.549-1.549l-.187-9.593c0-.856.34-1.758,1.2-1.758l.432-.579h12.911a1.549,1.549,0,0,1,1.549,1.549Z" transform="translate(-259.841 -0.001)" fill="#dc4955"/><path d="M296.653,11.782V12.3a1.549,1.549,0,0,1-1.549,1.549h-5.545a1.033,1.033,0,0,0-.605.2l-4.186,3.032a.516.516,0,0,1-.819-.418V14.881a1.033,1.033,0,0,0-1.033-1.033h-1.24a1.549,1.549,0,0,1-1.549-1.549V1.556A1.549,1.549,0,0,1,281.675.007h.516V11.576a.207.207,0,0,0,.207.207h.516a3.1,3.1,0,0,1,2.743,1.658.31.31,0,0,0,.457.11l1.626-1.179a3.081,3.081,0,0,1,1.818-.589Z" transform="translate(-255.326)" fill="#d82f3c"/><path d="M59.555,89.262A20.947,20.947,0,0,1,38.578,68.346a20.573,20.573,0,0,1,8.3-16.724A20.5,20.5,0,0,0,36.6,80.2s4.868,3.856,7.33,5.667c3.4,2.5,9.994,4.111,9.994,4.111s7.342.249,10.157-1.208a21.083,21.083,0,0,1-4.529.49Z" transform="translate(-31.172 -47.045)" fill="#6fbbc6"/><path d="M88.88,293.914c-1.646-2.293-4.674-4.821-4.544-7.865a8.238,8.238,0,0,0-.434-3.061c-.005-.013-.01-.026-.014-.039a4.58,4.58,0,0,0-.756-1.337c-.892-1.108-2.8-4-3.727-4.406a3.734,3.734,0,0,0-5.135,1.525c-.825,2.088-1.053,4.949-3.21,6.076a3.438,3.438,0,0,1-4.127-.615c-1.7-2.21-4.083-.073-5.566,1.17.589,1.1,2.993,1.907,3.77,2.883a15.7,15.7,0,0,0,10.822,6.461c4.4.8,8.906,1.294,12.873-.767Z" transform="translate(-55.934 -252.206)" fill="#b7e546"/><path d="M88.841,361.1a20.509,20.509,0,0,1-11.534,2.166h0A20.55,20.55,0,0,1,61.37,352.524c1.172-.984,2.908-2.527,4.425-2.034A21.041,21.041,0,0,0,88.841,361.1Z" transform="translate(-55.937 -319.369)" fill="#abd641"/><path d="M257.638,254.983v10.226l-.652.619c0,.856-.973.985-1.829.985l-4.677-.035a1.033,1.033,0,0,0-.606.2l-3.86,2.68a.516.516,0,0,1-.819-.418l.362-1.289a1.033,1.033,0,0,0-1.033-1.033h-1.24a1.549,1.549,0,0,1-1.549-1.549l-.187-9.593c0-.856.34-1.758,1.2-1.758l.432-.579h12.911A1.549,1.549,0,0,1,257.638,254.983Z" transform="translate(-220.165 -230.991)" fill="#ffbf54"/><path d="M253.125,265.208v.517a1.549,1.549,0,0,1-1.549,1.549h-5.545a1.033,1.033,0,0,0-.605.2l-4.186,3.032a.516.516,0,0,1-.819-.418v-1.777a1.033,1.033,0,0,0-1.033-1.033h-1.24a1.549,1.549,0,0,1-1.549-1.549V254.982a1.549,1.549,0,0,1,1.549-1.549h.516V265a.207.207,0,0,0,.207.207h.516a3.1,3.1,0,0,1,2.743,1.658.31.31,0,0,0,.457.11l1.626-1.179a3.081,3.081,0,0,1,1.818-.589Z" transform="translate(-215.652 -230.99)" fill="#ffa442"/><path d="M327.524,25.128a.664.664,0,0,0,0-1.328h-3.437V22.671a.664.664,0,1,0-1.328,0V23.8h-3.437a.664.664,0,0,0,0,1.328H320.7a9.487,9.487,0,0,0,1.828,3.818,8.23,8.23,0,0,1-2.335,1.564l-.915.408a.664.664,0,1,0,.54,1.213l.915-.408a9.56,9.56,0,0,0,2.691-1.8,9.56,9.56,0,0,0,2.691,1.8l.915.408a.664.664,0,0,0,.54-1.213l-.915-.408a8.227,8.227,0,0,1-2.335-1.564,9.487,9.487,0,0,0,1.828-3.818Zm-4.1,2.806a8.161,8.161,0,0,1-1.358-2.806h2.715A8.16,8.16,0,0,1,323.423,27.934Z" transform="translate(-290.447 -20.052)" fill="#faf8f8"/><path d="M275.823,285.507h-3.089a.664.664,0,1,0,0,1.328h.88v2.081h-2.641a2.367,2.367,0,0,0-2.127-3.408h-1.917a.664.664,0,0,0,0,1.328h1.917a1.04,1.04,0,0,1,0,2.081h-2.13a.664.664,0,1,0,0,1.328h2.13a1.041,1.041,0,0,1,1.04,1.04,1.029,1.029,0,0,1-1.04,1.04,3.659,3.659,0,0,1-2.726-.871.664.664,0,0,0-.939.939,4.914,4.914,0,0,0,3.665,1.26,2.367,2.367,0,0,0,2.127-3.408h2.641v2.744a.664.664,0,1,0,1.328,0v-6.153h.88a.664.664,0,0,0,0-1.328Z" transform="translate(-241.528 -260.224)" fill="#faf8f8"/><path d="M174.176,53.24l-.026.021a27.462,27.462,0,0,0-2.369,2.289,3.376,3.376,0,0,1,1.268-3.676c1.823-1.505,1.15-4.437-.124-6.1l-.767-.888q.892-.369,1.827-.654c.551.837,1.04,1.541,1.04,1.541,1.32,2.459,1.379,5.623-.849,7.461Z" transform="translate(-156.455 -40.314)" fill="#abd641"/><path d="M181.312,140.047c-.024.041-.049.081-.074.12a4.9,4.9,0,0,1-6.38,1.69l-.124-.066c-2.518-1.234-4.24-4.5-2.123-6.715-.674,2.034.917,4.383,3.059,5.387l.129.066a5.309,5.309,0,0,0,5.26-.3C181.145,140.169,181.23,140.11,181.312,140.047Z" transform="translate(-156.461 -123.112)" fill="#abd641"/><g transform="translate(14.797 41.727)"><path d="M238.862,495.452l.017,0Z" transform="translate(-232.512 -493.31)" fill="#94ccd4"/><path d="M167.135,475.042l.06.028Z" transform="translate(-167.135 -474.707)" fill="#94ccd4"/><path d="M360.285,471.257q-.548.284-1.115.534.558-.247,1.1-.529l.007,0Z" transform="translate(-342.169 -471.257)" fill="#94ccd4"/></g><path d="M8.053,108.581l.13,8.91a1.584,1.584,0,0,0,1.588,1.58l4.985.163a1.062,1.062,0,0,1,.621.2l3.4,2.876a.529.529,0,0,0,.84-.426l.215-1.39a1.056,1.056,0,0,1,1.059-1.053l1.645-.006c.877,0,1.741-.208,1.741-1.081V107.4a1.584,1.584,0,0,0-1.588-1.58H8.928c-.877,0-.875,1.889-.875,2.761Z" transform="translate(-7.34 -96.445)" fill="#fcfcfc"/><path d="M57.213,133.547l-.006-.015a.842.842,0,0,0-.781-.525h0a.842.842,0,0,0-.781.523l-.007.018L52.672,141.4a.664.664,0,1,0,1.242.469l.576-1.527h3.891l.582,1.529A.664.664,0,1,0,60.2,141.4Zm-2.221,5.471,1.435-3.8,1.448,3.8Z" transform="translate(-47.97 -121.225)" fill="#aad8de"/><path d="M16.938,118.159v.191a1.584,1.584,0,0,1-1.588,1.579h-1.27a1.056,1.056,0,0,0-1.058,1.054V122.8a.53.53,0,0,1-.84.426L7.892,120.13a1.064,1.064,0,0,0-.621-.2H1.588A1.584,1.584,0,0,1,0,118.35V107.4a1.584,1.584,0,0,1,1.588-1.58h.182v11.9a.443.443,0,0,0,.443.443H7.27a2.835,2.835,0,0,1,1.656.535l1.979,1.426a.356.356,0,0,0,.538-.164,2.834,2.834,0,0,1,2.636-1.8Z" transform="translate(0 -96.443)" fill="#f0e9e6"/></g></svg>