<svg id="Component_3_1" data-name="Component 3 – 1" xmlns="http://www.w3.org/2000/svg" width="37.359" height="37.359" viewBox="0 0 37.359 37.359">
  <g id="place">
    <path id="Path_1134" data-name="Path 1134" d="M37.359,18.68a18.659,18.659,0,1,1-.826-5.512A18.662,18.662,0,0,1,37.359,18.68Z" fill="#55d485"/>
    <ellipse id="Ellipse_149" data-name="Ellipse 149" cx="4.824" cy="1.987" rx="4.824" ry="1.987" transform="translate(23.17 18.533)" fill="#10995b"/>
    <path id="Path_1135" data-name="Path 1135" d="M151.653,268.563a1.94,1.94,0,0,1-.506,1,3.034,3.034,0,0,1-.925.621,9.438,9.438,0,0,1-2.417.657c-.857.14-1.723.225-2.588.292s-1.744.122-2.617.166c-1.742.088-3.486.148-5.228.246a50.1,50.1,0,0,0-5.149.489,12.309,12.309,0,0,0-2.418.588,2.671,2.671,0,0,0-1.005.569.293.293,0,0,0-.093.316,1.608,1.608,0,0,0,.218.46,5.449,5.449,0,0,0,.79.933c.082.081.166.16.251.238a.368.368,0,0,0,.132.08,4.223,4.223,0,0,0,1.123.256c.416.053.834.084,1.253.108.74.042,1.482.055,2.223.077a38.746,38.746,0,0,1,4.987.37,10.343,10.343,0,0,1,4.5,1.672,6.232,6.232,0,0,1,1.63,1.731l.035.057c.022.036.021.02,0,.05a.523.523,0,0,1-.115.077q-.133.088-.267.173-.252.16-.508.312-.515.3-1.048.576t-1.113.521q-.271.116-.545.223c-.035.014-.113.058-.136.038s-.046-.1-.064-.134a1.9,1.9,0,0,0-.153-.243,4.2,4.2,0,0,0-1.9-1.247,14.25,14.25,0,0,0-2.408-.665c-.845-.167-1.7-.291-2.551-.4s-1.681-.2-2.52-.316a17.158,17.158,0,0,1-2.448-.461,4.2,4.2,0,0,1-1.823-.956c-.123-.121-.236-.255-.348-.385a9.279,9.279,0,0,1-.745-.978,4.074,4.074,0,0,1-.752-2.1,2.6,2.6,0,0,1,1.005-2.077,5.54,5.54,0,0,1,2.2-.968,17.812,17.812,0,0,1,2.482-.386c1.714-.163,3.442-.189,5.163-.206,1.745-.017,3.489-.009,5.234-.037a40.786,40.786,0,0,0,5.166-.318,11.883,11.883,0,0,0,1.247-.24,4.058,4.058,0,0,0,1.112-.423.991.991,0,0,0,.376-.351.849.849,0,0,0,.091-.494c-.05-.357-.4-.6-.689-.765a4.939,4.939,0,0,0-1.1-.433,2.191,2.191,0,0,0-.464-.106.984.984,0,0,1,.039-.188q.043-.2.087-.406t.087-.4a1.429,1.429,0,0,1,.042-.184,2.012,2.012,0,0,0,.368.1,7.085,7.085,0,0,1,1.062.354,3.039,3.039,0,0,1,1.576,1.3A1.877,1.877,0,0,1,151.653,268.563Z" transform="translate(-116.765 -245.341)" fill="#10995b"/>
    <path id="Path_1136" data-name="Path 1136" d="M46.547,13.167H10.84a18.687,18.687,0,0,1,35.707,0Z" transform="translate(-10.014)" fill="#bce6f5"/>
    <g id="Group_10312" data-name="Group 10312" transform="translate(0.477 9.69)">
      <path id="Path_1137" data-name="Path 1137" d="M23.717,141.117l-6.929,12a18.707,18.707,0,0,1-3.554-2.1l-5.714-9.9a9.324,9.324,0,0,1,1.369-11.177,9.223,9.223,0,0,1,6.73-2.851A9.351,9.351,0,0,1,23.717,141.117Z" transform="translate(-6.253 -127.09)" fill="#f75454"/>
      <path id="Path_1138" data-name="Path 1138" d="M74.936,190.719a4.87,4.87,0,1,1-3.722-4.734A4.874,4.874,0,0,1,74.936,190.719Z" transform="translate(-60.698 -181.368)" fill="#bce6f5"/>
      <path id="Path_1139" data-name="Path 1139" d="M102.817,192.384a4.874,4.874,0,0,1-3.722,4.735,4.873,4.873,0,0,1,0-9.469A4.873,4.873,0,0,1,102.817,192.384Z" transform="translate(-88.58 -183.033)" fill="#fff"/>
    </g>
    <g id="Group_10313" data-name="Group 10313" transform="translate(21.144 0)">
      <path id="Path_1140" data-name="Path 1140" d="M284.165,20.521l5.924-10.26A6.84,6.84,0,0,0,284.165,0h0a6.84,6.84,0,0,0-5.924,10.26Z" transform="translate(-277.315 -0.001)" fill="#f75454"/>
      <path id="Path_1141" data-name="Path 1141" d="M327.553,46.54a3.562,3.562,0,1,1-2.722-3.463A3.565,3.565,0,0,1,327.553,46.54Z" transform="translate(-317.139 -39.7)" fill="#bce6f5"/>
      <path id="Path_1142" data-name="Path 1142" d="M347.945,47.758a2.8,2.8,0,1,1-2.722-3.463A3.565,3.565,0,0,1,347.945,47.758Z" transform="translate(-337.532 -40.918)" fill="#fff"/>
    </g>
  </g>
</svg>
