<svg xmlns="http://www.w3.org/2000/svg" width="44.299" height="44.299" viewBox="0 0 44.299 44.299"><path d="M44.3,22.149A22.149,22.149,0,1,1,22.149,0,22.149,22.149,0,0,1,44.3,22.149Zm0,0" fill="#46b8fc"/><path d="M24.406,11.914V39.683a22.155,22.155,0,0,0,34.172,7.6V11.914a3.067,3.067,0,0,0-3.067-3.067H27.473A3.066,3.066,0,0,0,24.406,11.914Zm0,0" transform="translate(-22.295 -8.082)" fill="#304e87"/><path d="M55.754,40.55V72.666A22.155,22.155,0,0,0,84.5,77.847V40.55a.354.354,0,0,0-.355-.355H56.108A.354.354,0,0,0,55.754,40.55Zm0,0" transform="translate(-50.93 -36.718)" fill="#2f373b"/><path d="M279.7,164.47l-8.123,8.123a.585.585,0,0,1-1-.414v-2.736a.584.584,0,0,0-.585-.585H259.377a.584.584,0,0,1-.584-.585v-8.433a.584.584,0,0,1,.584-.585H270a.585.585,0,0,0,.585-.585v-2.736a.585.585,0,0,1,1-.414l8.123,8.123A.585.585,0,0,1,279.7,164.47Zm0,0" transform="translate(-236.402 -141.908)" fill="#fb3a4a"/><path d="M263.377,200.5v9.6h-4a.584.584,0,0,1-.584-.585v-8.433a.584.584,0,0,1,.584-.585Zm0,0" transform="translate(-236.402 -183.156)" fill="#dd104f"/><path d="M55.754,40.2l.429,4.349L59.3,76.211a22.182,22.182,0,0,0,16.792,4.6V44.263L60.861,40.391l-.768-.2Zm0,0" transform="translate(-50.93 -36.718)" fill="#304e87"/><path d="M55.754,40.2V72.666a22.149,22.149,0,0,0,16,8.311V44.263L59.716,41.2Zm0,0" transform="translate(-50.93 -36.718)" fill="#1f3f72"/><path d="M162.332,302.593a2.238,2.238,0,1,0,1.627-2.153A2.236,2.236,0,0,0,162.332,302.593Zm0,0" transform="translate(-148.287 -274.368)" fill="#fdae2f"/><path d="M162.332,303.488a1.691,1.691,0,1,0,1.627-2.153A2.236,2.236,0,0,0,162.332,303.488Zm0,0" transform="translate(-148.287 -275.264)" fill="#fecf32"/></svg>