<svg xmlns="http://www.w3.org/2000/svg" width="44" height="44" viewBox="0 0 44 44"><g transform="translate(0.041 0.041)"><g transform="translate(0.317 0.317)"><circle cx="22" cy="22" r="22" transform="translate(-0.358 -0.358)" fill="#7584f2"/></g><path d="M144.269,110.8a22.134,22.134,0,0,0-.136-2.458l-11.12-11.12-23.13,24.7,10.692,10.692q.892.073,1.8.073A21.891,21.891,0,0,0,144.269,110.8Z" transform="translate(-100.31 -88.731)" fill="#4855b7"/><g transform="translate(17.973 29.018)"><circle cx="4.095" cy="4.095" r="4.095" fill="#ffce00"/></g><g transform="translate(22.045 29.018)"><path d="M255.757,337.275h-.023v8.189h.023a4.1,4.1,0,0,0,0-8.191Z" transform="translate(-255.734 -337.275)" fill="#fdba12"/></g><g transform="translate(10.62 7.954)"><path d="M145.022,113.591h-22.9l4.618-17.4a7.066,7.066,0,0,1,13.659,0Z" transform="translate(-122.126 -90.942)" fill="#ffce00"/></g><g transform="translate(22.045 7.954)"><path d="M262.586,96.195a7.066,7.066,0,0,0-6.829-5.253h-.023v22.649H267.2Z" transform="translate(-255.734 -90.942)" fill="#fdba12"/></g><g transform="translate(9.573 28.012)"><path d="M109.883,325.512h24.989v5.182H109.883Z" transform="translate(-109.883 -325.512)" fill="#fa0"/></g><g transform="translate(22.045 28.012)"><path d="M255.734,325.512h12.517v5.182H255.734Z" transform="translate(-255.734 -325.512)" fill="#ff9500"/></g><g transform="translate(23.839 6.762)"><circle cx="5.056" cy="5.056" r="5.056" fill="#ff475a"/></g><g transform="translate(28.919 6.762)"><path d="M341.146,82.063a5.056,5.056,0,0,0-5.033-5.056V87.119A5.056,5.056,0,0,0,341.146,82.063Z" transform="translate(-336.113 -77.007)" fill="#f03049"/></g><g transform="translate(26.503 8.491)"><path d="M309.772,103.876V99.048l-1.107,1.127-.808-.848,2.1-2.105h1.237v6.654Z" transform="translate(-307.857 -97.222)" fill="#fff"/></g><g transform="translate(28.919 8.491)"><path d="M336.114,97.222h.916v6.654h-.916Z" transform="translate(-336.114 -97.222)" fill="#e9edf5"/></g></g></svg>