<svg xmlns="http://www.w3.org/2000/svg" width="230.299" height="239.838" viewBox="0 0 230.299 239.838">
  <g id="Group_2228" data-name="Group 2228" transform="translate(-328.976 -105.451)">
    <path id="Path_739" data-name="Path 739" d="M472.806,107.231c18.911,3.32,38.846,9.9,53.565,22.41,15.1,12.826,22.383,34.93,25.395,53.613,2.9,17.967,1.964,35.924,1.443,54.006-.54,18.775-2.6,38.951-11.869,56.051C531,312.389,511.746,325.09,490.965,331.407c-24.343,7.4-50.672,6.311-75.672,1.434-5.026-.981-10.02-2.11-15.014-3.24-6.8-1.539-13.691-3.109-19.855-6.308-8.809-4.572-15.548-12.165-21.407-20.046-14.3-19.237-24.681-41.457-28.553-64.923a110.624,110.624,0,0,1,29.266-94.569C387.562,114.392,432.672,100.187,472.806,107.231Z" transform="translate(0 0)" fill="#c6e9fa"/>
    <path id="Path_740" data-name="Path 740" d="M472.477,134.872c16.087,2.823,33.042,8.425,45.563,19.062,12.841,10.91,19.04,29.714,21.6,45.605,2.464,15.283,1.67,30.558,1.227,45.939-.46,15.97-2.21,33.133-10.1,47.678-8.8,16.227-25.172,27.031-42.85,32.4-20.706,6.294-43.1,5.369-64.367,1.22-4.275-.834-8.524-1.794-12.771-2.755-5.785-1.31-11.647-2.644-16.891-5.367-7.492-3.889-13.225-10.347-18.209-17.051-12.164-16.364-20.994-35.265-24.288-55.225a94.1,94.1,0,0,1,24.894-80.443C399.967,140.962,438.338,128.88,472.477,134.872Z" transform="translate(-4.365 -5.758)" fill="#a2ddf8"/>
    <path id="Path_741" data-name="Path 741" d="M361.577,283.994a11.537,11.537,0,0,1,17.5-13.409c2.44-7.091,5.232-14.241,10.076-19.965s12.131-9.865,19.6-9.163c8.614.813,15.389,7.619,20.494,14.6a13.612,13.612,0,0,1,23.357,4.2,50.051,50.051,0,0,1,29.757-13.826c13.237-1.3,27.81,3.7,34.669,15.095,5.014,8.333,5.27,18.582,5.385,28.307a9.51,9.51,0,0,1,15.8,9.111c3.4-1.625,7.528,1.53,8.33,5.21s-.667,7.44-2.166,10.9c-1.546,3.564-3.192,7.156-5.733,10.1-6.664,7.707-17.811,9.325-27.957,10.27q-37.99,3.535-76.183,3.942c-23.237.246-47.807-.759-67.423-13.222-5.825-3.7-11.26-8.646-13.492-15.177-.882-2.583-1.229-5.316-2-7.933-1.336-4.533-3.966-9.1-2.8-13.676C350.108,284.174,356.948,281.3,361.577,283.994Z" transform="translate(-4.027 -28.048)" fill="#fff"/>
    <path id="Path_742" data-name="Path 742" d="M386.332,308.02a8.984,8.984,0,0,1,13.627-10.441c1.9-5.521,4.074-11.087,7.845-15.545s9.446-7.682,15.26-7.134c6.707.633,11.982,5.932,15.957,11.371a10.6,10.6,0,0,1,18.186,3.274,38.972,38.972,0,0,1,23.171-10.764c10.306-1.013,21.654,2.88,26.994,11.753,3.9,6.489,4.1,14.469,4.193,22.041a7.405,7.405,0,0,1,12.3,7.094c2.647-1.266,5.86,1.191,6.485,4.057s-.518,5.793-1.686,8.484a29.933,29.933,0,0,1-4.464,7.86c-5.19,6-13.868,7.263-21.768,8q-29.58,2.754-59.319,3.07c-18.093.192-37.225-.591-52.5-10.295-4.536-2.882-8.768-6.733-10.5-11.818-.687-2.01-.957-4.139-1.558-6.175-1.04-3.529-3.089-7.084-2.179-10.649A7.093,7.093,0,0,1,386.332,308.02Z" transform="translate(-9.733 -34.952)" fill="#e1f3fc"/>
    <path id="Path_743" data-name="Path 743" d="M531.788,164.387a9.136,9.136,0,0,0-9.845,3.28c-3.426,4.738-1.491,11.306-2.175,17.113A7.754,7.754,0,0,0,516,183.555a2.667,2.667,0,0,0-2.7,2.39c.046,1.913,2.54,2.575,4.452,2.661a279.671,279.671,0,0,0,34.041-.552,3.964,3.964,0,0,0-6.47-4.521c1.355-.442,1.62-2.221,1.567-3.646-.116-3.175-.745-6.6-3.078-8.755s-6.8-2.082-8.139.8c.155-2.136.093-4.521-1.374-6.083A5.747,5.747,0,0,0,531.788,164.387Z" transform="translate(-38.033 -12.084)" fill="#fff"/>
    <path id="Path_744" data-name="Path 744" d="M422.527,154.1a5.937,5.937,0,0,1,8.563.156,6.378,6.378,0,0,1,1.336,2.826c.6,2.944-1.072,6.36-3.967,7.169a10.4,10.4,0,0,1-2.656.266l-10.63.141c-9.09.122-18.207.242-27.242-.76q.025-.721.051-1.443a40.49,40.49,0,0,1,9.513-3.722c-1.613-2.988-1.559-7.066.848-9.46s7.233-1.982,8.569,1.139a12.438,12.438,0,0,1,8.271-10.425,5.852,5.852,0,0,1,4.552.063c1.526.816,2.306,2.552,2.752,4.225A19.465,19.465,0,0,1,422.527,154.1Z" transform="translate(-12.165 -7.038)" fill="#fff"/>
    <path id="Path_745" data-name="Path 745" d="M408.453,213.83c2.77,3.6,3.6,8.288,4.237,12.785q1.676,11.779,2.41,23.667c.5,8.056.571,16.561-3.256,23.668a17.675,17.675,0,0,1-9.9,8.731c-4.633,1.443-9.7.364-14.178-1.506a46.119,46.119,0,0,1-23.886-23.966c-2.907-6.6-4.125-14.939.4-20.555,1.564-1.938,3.79-3.546,4.331-5.976.444-1.991-.379-4.033-1.3-5.852-2.552-5.021-6-9.579-8.149-14.785a32.632,32.632,0,0,1,27.79-44.984,12.117,12.117,0,0,1,6.416.92,10.736,10.736,0,0,1,4.214,4.4c3.583,6.292,3.349,14.02,2.346,21.191-.648,4.641-1.514,9.667.729,13.783C402.508,208.73,406.1,210.777,408.453,213.83Z" transform="translate(-5.734 -12.286)" fill="#d0e07a"/>
    <path id="Path_746" data-name="Path 746" d="M408.566,298.128c-1.989-11.868-4.343-23.673-6.948-35.42-1.476-6.659-3.052-13.295-4.667-19.922a.994.994,0,0,0,1.076-1.444,15.377,15.377,0,0,0-2.014-2.394q-.632-2.569-1.268-5.134a36.539,36.539,0,0,1,4.183-7.181,21.862,21.862,0,0,0,4.368-7.9.72.72,0,0,0-1.388-.383c-1.056,3.585-3.588,6.236-5.887,9.077a26.725,26.725,0,0,0-2.129,2.937q-.3-1.192-.588-2.383-1.079-4.338-2.15-8.678c2.606-4.77,2.714-11.691,3.577-16.791.175-1.033-1.38-1.49-1.59-.439-.61,3.033-1.152,6.078-1.814,9.1a42.814,42.814,0,0,1-1.186,4.146c-.231-.9-.452-1.81-.689-2.713a.686.686,0,0,0,.1-1.06c-.153-.128-.324-.233-.484-.351-1.521-5.489-3.561-10.748-4.037-16.487-.09-1.073-1.736-1.1-1.693,0a72.356,72.356,0,0,0,2.358,14.53c-.363-.183-.725-.364-1.081-.553-2.091-1.113-4.145-2.29-6.132-3.584-.56-.364-1.027.5-.513.878,1.7,1.256,3.453,2.417,5.243,3.537,1,.623,2,1.3,3.037,1.91,1.156,4.448,2.429,8.866,3.385,13.216q1.182,5.387,2.348,10.779a47.952,47.952,0,0,0-7.372-5.156.847.847,0,0,0-.854,1.461,48.991,48.991,0,0,1,6.927,5.229c.717.643,1.4,1.346,2.072,2.055q2.2,10.26,4.293,20.545c2.38,11.827,4.414,23.722,6.183,35.656,1.69,11.395,2.384,23.079,4.327,34.391.371,2.168,3.648,1.958,4.161,0C414.245,319.98,410.171,307.7,408.566,298.128Z" transform="translate(-10.065 -18.25)" fill="#b0bf69"/>
    <path id="Path_747" data-name="Path 747" d="M537.171,271.466a72.917,72.917,0,0,1-20.364-32.833c-1.489-5.073-2.3-10.942.659-15.321,3.626-5.36,12.114-7.263,13.2-13.641.336-1.96-.162-3.951-.467-5.916a31.456,31.456,0,0,1,12.743-29.916c2.913-2.04,6.234-3.623,8.544-6.33,3.779-4.432,4.008-10.778,5.919-16.28a27.364,27.364,0,0,1,23.057-17.866,4.82,4.82,0,0,1,3.152.529,4.176,4.176,0,0,1,1.2,1.44c2.735,4.85,1.133,10.854.09,16.324s-.948,12.191,3.669,15.3c1.787,1.2,4.009,1.648,5.765,2.9,4.559,3.239,4.066,10.354,1.352,15.244s-7.06,8.8-9.282,13.937c-3.533,8.161-1.045,17.493.488,26.253s1.481,19.147-5.32,24.878c-3.161,2.663-7.386,3.9-10.321,6.81-1.9,1.885-3.117,4.332-4.633,6.537a28.181,28.181,0,0,1-18.447,11.7,12.46,12.46,0,0,1-5.266-.066A14.452,14.452,0,0,1,537.171,271.466Z" transform="translate(-38.481 -5.751)" fill="#d0e07a"/>
    <path id="Path_748" data-name="Path 748" d="M577.175,197.69c-4.5,2.228-9.979,4.449-14.11,7.822.143-.613.279-1.228.427-1.841,2.869-11.946,7.943-22.965,11.534-34.657.469-1.529-1.844-2.125-2.367-.653-2.083,5.869-4.511,11.536-6.843,17.244-.572-2.1-2.185-4.137-3.3-5.885a.677.677,0,0,0-1.169.683c.521,1.014,1.032,2.033,1.517,3.067a21.033,21.033,0,0,0,1.6,3.507.931.931,0,0,0,.656.356,152.8,152.8,0,0,0-5.425,15.292c-1.527,5.357-2.859,10.765-4.154,16.184-.315-.7-.634-1.4-.933-2.1-1.521-3.578-3.132-7.117-4.73-10.659-.51-1.132-2.469-.31-2.011.848,1.252,3.16,2.5,6.323,3.709,9.5.932,2.443,1.6,5.171,2.736,7.587-1.175,4.961-2.356,9.921-3.66,14.847-3.213,12.137-6.227,24.284-8.872,36.56-2.514,11.667-5.791,23.768-6.094,35.745-.072,2.853,3.859,3.1,4.737.64,3.944-11.057,5.153-23.236,7.333-34.738,2.338-12.341,5.016-24.6,7.906-36.826,2.391-10.115,4.224-20.351,6.453-30.5a121.312,121.312,0,0,1,15.979-10.443C579.131,198.7,578.217,197.175,577.175,197.69Z" transform="translate(-42.653 -12.806)" fill="#b0bf69"/>
    <path id="Path_749" data-name="Path 749" d="M564.715,341.539c-.337-6.4-.6-13.153,2.355-18.839l7.187,8.353a30.474,30.474,0,0,1,17.891-24.495c.694,8.78-1.413,17.514-3.5,26.07a29.139,29.139,0,0,1,11.2-4.183c-4.166,9.722-9.694,19.79-19.255,24.313-3.925,1.857-9.016,2.474-12.295-.373C565.337,349.816,564.921,345.452,564.715,341.539Z" transform="translate(-48.602 -41.497)" fill="#d0e07a"/>
    <path id="Path_750" data-name="Path 750" d="M571.6,348.1c-.2-3.73-.352-7.667,1.372-10.981l4.19,4.869a17.76,17.76,0,0,1,10.428-14.278c.4,5.118-.824,10.209-2.043,15.2a16.987,16.987,0,0,1,6.529-2.439c-2.429,5.668-5.65,11.535-11.224,14.172-2.288,1.082-5.255,1.441-7.165-.218C571.964,352.925,571.722,350.381,571.6,348.1Z" transform="translate(-50.04 -45.862)" fill="#b0bf69"/>
    <path id="Path_751" data-name="Path 751" d="M343.511,344.815c-3.179-5.564-6.452-11.477-6.368-17.885l10.175,4.229a30.473,30.473,0,0,1,4.964-29.925c4.569,7.532,6.615,16.279,8.595,24.862A29.156,29.156,0,0,1,369,317.322c.652,10.557.242,22.035-6.263,30.376-2.671,3.424-6.939,6.264-11.148,5.194C347.789,351.928,345.455,348.218,343.511,344.815Z" transform="translate(-1.685 -40.399)" fill="#d0e07a"/>
    <path id="Path_752" data-name="Path 752" d="M350.56,349.22c-1.966-3.44-3.99-7.1-3.938-11.058l6.292,2.614a18.84,18.84,0,0,1,3.069-18.5c2.825,4.657,4.09,10.065,5.314,15.372a18.031,18.031,0,0,1,5.021-5.425c.4,6.527.15,13.625-3.872,18.781-1.651,2.117-4.291,3.873-6.893,3.212C353.2,353.618,351.762,351.324,350.56,349.22Z" transform="translate(-3.641 -44.74)" fill="#b0bf69"/>
    <path id="Path_753" data-name="Path 753" d="M510.732,383.024c11.787-.736,24.087-1.407,34.337-7.273,3.617-2.071,7.141-5.2,7.564-9.349.4-3.923-2.211-7.665-5.562-9.744s-7.338-2.817-11.228-3.457c-44.384-7.317-89.666-7.141-134.6-5.071-21.523.991-43.353,2.478-63.666,9.661-1.837.648-3.794,1.454-4.792,3.127-1.384,2.32-.281,5.476,1.752,7.255s4.75,2.514,7.364,3.2l13.858,3.619c3.113.813,6.518,1.832,8.237,4.55,1.15,1.818,1.344,4.137,2.6,5.886,1.99,2.775,5.869,3.222,9.278,3.423l103.524,6.1c7.5.442,16.26.349,20.886-5.571,1.148-1.468,1.961-3.229,3.4-4.406C505.607,383.407,508.257,383.178,510.732,383.024Z" transform="translate(-0.658 -49.82)" fill="#dfe895"/>
    <path id="Path_754" data-name="Path 754" d="M512.538,368.23a2.838,2.838,0,0,0,.254,3.372,7.068,7.068,0,0,0,3.02,1.96c8.221,3.319,17.4,2.994,26.253,2.617,5.017-.214,10.181-.462,14.738-2.568a7.539,7.539,0,0,0,3.079-2.287,3.454,3.454,0,0,0,.359-3.652c-3.659-3-8.722-3.671-13.444-3.352s-9.357,1.5-14.083,1.721c-6.18.286-12.613-1.048-18.422,1.085A3.759,3.759,0,0,0,512.538,368.23Z" transform="translate(-37.784 -53.401)" fill="#bcd97c"/>
    <g id="Group_2218" data-name="Group 2218" transform="translate(466.121 214.104)">
      <path id="Path_755" data-name="Path 755" d="M503.79,254.072s3.424-6.42,6.419-9.629,47.29-2.14,50.072-.641,4.494,14.551,4.494,14.551Z" transform="translate(-502.192 -242.353)" fill="#5bac46"/>
      <path id="Path_756" data-name="Path 756" d="M504.06,264.129S514.093,345.286,515.8,348.5s35.323,3.459,37.677.249,10.493-81.62,10.493-81.62Z" transform="translate(-502.248 -246.846)" fill="#5bac46"/>
      <path id="Path_757" data-name="Path 757" d="M504.106,254.109c-2.756,0-3.244,8.983-.5,10.23s56.638,1.248,59.634,1.5,3.492-9.483.748-10.48S510.842,254.109,504.106,254.109Z" transform="translate(-501.777 -244.779)" fill="#265f20"/>
      <g id="Group_2217" data-name="Group 2217" transform="translate(18.593 32.099)">
        <path id="Path_758" data-name="Path 758" d="M537.449,309.267H525.2a19.276,19.276,0,0,0,3.556,5.332c1.876,1.679,8.69.889,8.69.889Z" transform="translate(-525.204 -288.259)" fill="#fff"/>
        <path id="Path_759" data-name="Path 759" d="M533.895,302.127l-2.963-5.925-5.728,2.963,1.853.632L525.2,305.09h5.629l1.173-3.606Z" transform="translate(-525.204 -285.563)" fill="#fff"/>
        <path id="Path_760" data-name="Path 760" d="M536.559,293.1l7.381-9.769a19.289,19.289,0,0,0-6.4-.379c-2.471.484-5.948,6.4-5.948,6.4Z" transform="translate(-526.523 -282.797)" fill="#fff"/>
        <path id="Path_761" data-name="Path 761" d="M544.881,293.313l6.513,1.208,1.09-6.355-1.621,1.1-3.106-4.67-3.393,4.491,2.169,3.11Z" transform="translate(-529.157 -283.168)" fill="#fff"/>
        <path id="Path_762" data-name="Path 762" d="M552.573,300.578l3.852,11.623a19.31,19.31,0,0,0,3.944-5.052c1-2.309-1.89-8.528-1.89-8.528Z" transform="translate(-530.851 -286.062)" fill="#fff"/>
        <path id="Path_763" data-name="Path 763" d="M547.447,307.1l-4.692,4.675,4.614,4.505.016-1.957,5.608.093-1.77-5.342-3.792.019Z" transform="translate(-528.826 -287.812)" fill="#fff"/>
      </g>
    </g>
    <path id="Path_764" data-name="Path 764" d="M362.165,370.03c.724,1.963,2.9,2.909,4.884,3.585,21.1,7.2,44.223,7.495,65.989,2.687,3.863-.853,8.1-2.167,10.033-5.619a4.2,4.2,0,0,0,.608-2.652c-.394-2.482-3.5-3.3-6.006-3.557q-23.843-2.466-47.814-3.378c-7.194-.274-14.526-.426-21.445,1.56a11.246,11.246,0,0,0-4.817,2.43A4.825,4.825,0,0,0,362.165,370.03Z" transform="translate(-6.802 -52.717)" fill="#bcd97c"/>
    <path id="Path_765" data-name="Path 765" d="M467.859,374.973a24.677,24.677,0,0,1,3.8-.937,22.738,22.738,0,0,1,6.341.656,75.463,75.463,0,0,0,12.663.717,16.851,16.851,0,0,0,6.306-.8,5.727,5.727,0,0,0,3.816-4.7c-.962-3.833-4.959-6.083-8.779-7.1a29.345,29.345,0,0,0-10.245-.846c-4.673.441-9.2,2-13.89,2.259-2.673.145-5.367-.137-8.023.2s-5.391,1.417-6.884,3.64-1.188,5.728,1.126,7.074a7.015,7.015,0,0,0,2.829.758A29.462,29.462,0,0,0,467.859,374.973Z" transform="translate(-25.396 -52.903)" fill="#bcd97c"/>
    <g id="Group_2221" data-name="Group 2221" transform="translate(357.887 193.484)">
      <path id="Path_766" data-name="Path 766" d="M405.217,241.8s-9.257-14.014-6.416-19.29a4.811,4.811,0,0,1,7.028-1.891c1.833,1.135,5.194-3.4,8.86-4.16s5.8,3.4,7.638,4.539,3.972-.379,5.195,3.4-6.417,9.834-9.472,17.4Z" transform="translate(-372.184 -216.372)" fill="#5bac46"/>
      <path id="Path_767" data-name="Path 767" d="M407.428,250.812s-2.444-2.444-.917-4.888,11.61-3.361,13.749,0-1.529,7.027-1.529,7.027Z" transform="translate(-373.783 -222.018)" fill="#265f20"/>
      <path id="Path_768" data-name="Path 768" d="M399.965,249.148c-13.96,1.268-32.081,28.108-33.608,46.747s-2.14,41.552,5.5,50.413S427.158,357,440.6,344.78s4.889-49.8-3.056-66.3S420.131,247.314,399.965,249.148Z" transform="translate(-365.404 -223.103)" fill="#5bac46"/>
      <circle id="Ellipse_76" data-name="Ellipse 76" cx="17.88" cy="17.88" r="17.88" transform="translate(23.237 60.862)" fill="#fff"/>
      <g id="Group_2220" data-name="Group 2220" transform="translate(26.295 63.035)">
        <g id="Group_2219" data-name="Group 2219">
          <path id="Path_769" data-name="Path 769" d="M410.781,322.266H398.536a19.288,19.288,0,0,0,3.556,5.332c1.876,1.679,8.69.889,8.69.889Z" transform="translate(-398.536 -301.257)" fill="#265f20"/>
          <path id="Path_770" data-name="Path 770" d="M407.226,315.126l-2.962-5.925-5.728,2.962,1.853.632-1.853,5.294h5.629l1.173-3.606Z" transform="translate(-398.536 -298.562)" fill="#265f20"/>
          <path id="Path_771" data-name="Path 771" d="M409.891,306.1l7.381-9.768a19.307,19.307,0,0,0-6.4-.379c-2.47.485-5.947,6.4-5.947,6.4Z" transform="translate(-399.855 -295.795)" fill="#265f20"/>
          <path id="Path_772" data-name="Path 772" d="M418.213,306.312l6.514,1.208,1.089-6.355-1.621,1.1-3.106-4.669-3.393,4.491,2.169,3.11Z" transform="translate(-402.489 -296.166)" fill="#265f20"/>
          <path id="Path_773" data-name="Path 773" d="M425.9,313.577l3.852,11.623a19.307,19.307,0,0,0,3.944-5.052c1-2.309-1.89-8.529-1.89-8.529Z" transform="translate(-404.183 -299.061)" fill="#265f20"/>
          <path id="Path_774" data-name="Path 774" d="M420.779,320.1l-4.692,4.675,4.613,4.506.017-1.958,5.608.094-1.77-5.343-3.792.019Z" transform="translate(-402.158 -300.81)" fill="#265f20"/>
        </g>
      </g>
      <path id="Path_775" data-name="Path 775" d="M404.969,240.092a.285.285,0,0,0-.518.217,6.826,6.826,0,0,0,1.262,2.458.328.328,0,0,0,.544-.317A10.4,10.4,0,0,0,404.969,240.092Z" transform="translate(-373.459 -221.239)" fill="#88c55b"/>
      <path id="Path_776" data-name="Path 776" d="M409.89,240.392c-1.12-2.275-2.479-4.325-2.314-6.988.025-.4-.578-.389-.618,0a10.332,10.332,0,0,0,2.348,7.44C409.608,241.168,410.069,240.757,409.89,240.392Z" transform="translate(-373.97 -219.825)" fill="#88c55b"/>
      <path id="Path_777" data-name="Path 777" d="M411.837,240.4c.042-.336-.527-.41-.59-.079a1.055,1.055,0,0,0,.245,1.071.256.256,0,0,0,.425-.247A2.151,2.151,0,0,1,411.837,240.4Z" transform="translate(-374.855 -221.27)" fill="#88c55b"/>
      <path id="Path_778" data-name="Path 778" d="M413.724,239.454c-.023-.421-.027-.843-.051-1.264a.275.275,0,0,0-.55,0c-.054.756-.3,1.774.169,2.443a.282.282,0,0,0,.521-.141C413.823,240.145,413.745,239.8,413.724,239.454Z" transform="translate(-375.227 -220.819)" fill="#88c55b"/>
      <path id="Path_779" data-name="Path 779" d="M418.39,231.542a.245.245,0,0,0-.491,0c-.02,1.228.036,2.456.019,3.683a13.559,13.559,0,0,1-.921,4.349.348.348,0,0,0,.579.337C419.425,237.854,418.483,234.024,418.39,231.542Z" transform="translate(-376.047 -219.454)" fill="#88c55b"/>
      <path id="Path_780" data-name="Path 780" d="M421.793,239.555c-.04-.344-.57-.361-.55,0a8.463,8.463,0,0,1-.376,1.828c-.034.221.242.464.425.247A2.78,2.78,0,0,0,421.793,239.555Z" transform="translate(-376.848 -221.101)" fill="#88c55b"/>
      <path id="Path_781" data-name="Path 781" d="M424.742,240.143a13.176,13.176,0,0,1-1.164,1.968c-.163.258.151.533.4.4a3.494,3.494,0,0,0,1.377-2.2C425.476,239.909,424.894,239.778,424.742,240.143Z" transform="translate(-377.398 -221.233)" fill="#88c55b"/>
      <path id="Path_782" data-name="Path 782" d="M405.639,250.082a20.192,20.192,0,0,0-3.044,2.233,6.7,6.7,0,0,0-2.26,2.648c-.1.317.288.46.5.292.852-.667,1.516-1.64,2.31-2.388.9-.84,1.918-1.534,2.8-2.381A.259.259,0,0,0,405.639,250.082Z" transform="translate(-372.608 -223.321)" fill="#88c55b"/>
      <path id="Path_783" data-name="Path 783" d="M407.536,252.318a2.819,2.819,0,0,0-1.338,1.36c-.08.253.24.4.418.244a12.056,12.056,0,0,1,1.163-1.187A.241.241,0,0,0,407.536,252.318Z" transform="translate(-373.819 -223.782)" fill="#88c55b"/>
      <path id="Path_784" data-name="Path 784" d="M410.576,252.22a1.383,1.383,0,0,0-.6.9c-.04.2.229.425.388.226a3.943,3.943,0,0,1,.607-.61C411.258,252.5,410.869,252,410.576,252.22Z" transform="translate(-374.6 -223.758)" fill="#88c55b"/>
      <path id="Path_785" data-name="Path 785" d="M415.253,251.392c-.055-.375-.678-.283-.657.088.114,1.994-.261,4.1.083,6.065a.4.4,0,0,0,.775,0A19.758,19.758,0,0,0,415.253,251.392Z" transform="translate(-375.541 -223.549)" fill="#88c55b"/>
      <path id="Path_786" data-name="Path 786" d="M419.128,252.036a.28.28,0,0,0-.483.283,6.176,6.176,0,0,1,.525,1.47,2.824,2.824,0,0,0,.46,1.165c.171.215.474.017.491-.2A4.947,4.947,0,0,0,419.128,252.036Z" transform="translate(-376.382 -223.704)" fill="#88c55b"/>
      <path id="Path_787" data-name="Path 787" d="M425.244,252.477a5.134,5.134,0,0,0-2.014-1.037.381.381,0,0,0-.2.734,4.945,4.945,0,0,1,1.68,1.1,12.82,12.82,0,0,0,1.336,1.443c.3.208.647-.133.579-.444A3.8,3.8,0,0,0,425.244,252.477Z" transform="translate(-377.24 -223.605)" fill="#88c55b"/>
      <path id="Path_788" data-name="Path 788" d="M376.385,370.376a29.21,29.21,0,0,1-2.306-4.2c-.157-.306-.586-.037-.452.265.641,1.456,1.039,3.219,2.339,4.253C376.184,370.871,376.581,370.641,376.385,370.376Z" transform="translate(-367.096 -247.256)" fill="#88c55b"/>
      <path id="Path_789" data-name="Path 789" d="M381.157,371.083c-2.461-3.125-5.106-6.356-5.2-10.556a.224.224,0,0,0-.448,0c-.11,3.736,2,9.017,5.173,11.168C381.082,371.964,381.408,371.4,381.157,371.083Z" transform="translate(-367.489 -246.073)" fill="#88c55b"/>
      <path id="Path_790" data-name="Path 790" d="M383.661,372.97a.314.314,0,0,0-.541.317,4.7,4.7,0,0,0,.75,1.122.281.281,0,0,0,.467-.272A4.642,4.642,0,0,0,383.661,372.97Z" transform="translate(-369.05 -248.655)" fill="#88c55b"/>
      <path id="Path_791" data-name="Path 791" d="M388.508,372.626c-.336-.24-.753.3-.44.571a11.972,11.972,0,0,0,1.045.964.319.319,0,0,0,.466-.358A2.6,2.6,0,0,0,388.508,372.626Z" transform="translate(-370.058 -248.602)" fill="#88c55b"/>
      <path id="Path_792" data-name="Path 792" d="M397.83,360.674a.313.313,0,0,0-.626,0,46.923,46.923,0,0,1-1.433,11.4c-.11.433.544.744.743.313C398.163,368.814,397.918,364.514,397.83,360.674Z" transform="translate(-371.668 -246.085)" fill="#88c55b"/>
      <path id="Path_793" data-name="Path 793" d="M402.051,370.391a.343.343,0,0,0-.686,0,26.342,26.342,0,0,1-.382,3.7.33.33,0,0,0,.637.176A9.061,9.061,0,0,0,402.051,370.391Z" transform="translate(-372.745 -248.085)" fill="#88c55b"/>
      <path id="Path_794" data-name="Path 794" d="M409.751,373.63a.355.355,0,0,0-.71,0,6.891,6.891,0,0,1-.325,1.82.285.285,0,0,0,.474.275A2.767,2.767,0,0,0,409.751,373.63Z" transform="translate(-374.339 -248.75)" fill="#88c55b"/>
      <path id="Path_795" data-name="Path 795" d="M456.015,355.46c-.687,4.237-2.053,8.259-2.893,12.445-.081.4.512.715.7.3,1.782-3.894,2.325-8.436,2.845-12.651C456.717,355.177,456.074,355.09,456.015,355.46Z" transform="translate(-383.503 -245.023)" fill="#88c55b"/>
      <path id="Path_796" data-name="Path 796" d="M458.157,365.968a9.1,9.1,0,0,1-.675,2.086c-.1.277.321.536.51.3a3.97,3.97,0,0,0,.758-2.382C458.761,365.578,458.2,365.6,458.157,365.968Z" transform="translate(-384.401 -247.181)" fill="#88c55b"/>
      <path id="Path_797" data-name="Path 797" d="M450.516,364.092c-.027-.372-.6-.379-.585,0,.071,1.911-1.187,3.282-1.5,5.074-.052.289.335.49.5.208A9.93,9.93,0,0,0,450.516,364.092Z" transform="translate(-382.534 -246.795)" fill="#88c55b"/>
      <path id="Path_798" data-name="Path 798" d="M444.215,370.162c-.354.831-.843,1.6-1.162,2.44-.125.329.356.479.533.225a12.812,12.812,0,0,0,1.248-2.4C444.98,370.07,444.365,369.811,444.215,370.162Z" transform="translate(-381.422 -248.071)" fill="#88c55b"/>
    </g>
    <g id="Group_2227" data-name="Group 2227" transform="translate(410.147 120.469)">
      <path id="Path_799" data-name="Path 799" d="M452.1,152.485c-.249,18.3-22.04,58.717,15.885,57.054s17.3-42.25,19.3-58.385l-7.984-8.649H465.327l-9.481,4.325Z" transform="translate(-434.222 -128.115)" fill="#9b5023"/>
      <path id="Path_800" data-name="Path 800" d="M468.526,172.554s-.083,2.911-4.325,5.49-1.165,11.395-1.165,11.395,14.222,3.825,14.472,3.91,5.988-4.908,5.988-4.908l-3.576-10.147s-3.327-.332-4.158-6.237Z" transform="translate(-437.587 -134.212)" fill="#fab37c"/>
      <path id="Path_801" data-name="Path 801" d="M493.315,367.082c-1.38.2-2.121,2.869-.874,4.866s9.192,1.5,11.687.5S501.8,365.835,493.315,367.082Z" transform="translate(-443.746 -174.418)" fill="#619ba6"/>
      <path id="Path_802" data-name="Path 802" d="M490.722,349.3s1.371,13.723,2.121,15.22a1.762,1.762,0,0,0,3.243.125c.749-1.372.125-16.218.125-16.218Z" transform="translate(-443.522 -170.605)" fill="#fcc98f"/>
      <path id="Path_803" data-name="Path 803" d="M467.8,367.08c1.381.2,2.121,2.869.874,4.866s-9.344,1.227-11.838.229S459.318,365.833,467.8,367.08Z" transform="translate(-436.397 -174.416)" fill="#619ba6"/>
      <path id="Path_804" data-name="Path 804" d="M472.316,349.3s-1.372,13.723-2.121,15.22a1.762,1.762,0,0,1-3.244.125c-.748-1.372-.125-16.218-.125-16.218Z" transform="translate(-438.542 -170.605)" fill="#fcc98f"/>
      <path id="Path_805" data-name="Path 805" d="M459.126,248.9s5.115,79.094,5.489,81.464,5.614,1.373,6.613.375.5-64.872,1.5-66.618,3.118-.749,3.743.748,6.362,61.878,7.111,63.874,5.239,1.871,6.487-.125-1.248-78.1-2-80.342-13.723-2.5-13.723-2.5Z" transform="translate(-437.003 -149.424)" fill="#0d415d"/>
      <path id="Path_806" data-name="Path 806" d="M436.907,253.333s1.663,1.663-2.662,3.992-3.326,3.66-1,4.491,4.657-.333,6.154-1.829c0,0-.166,2.828,1,2.828s1.663-5.157,1.5-8.649S436.907,253.333,436.907,253.333Z" transform="translate(-431.251 -150.783)" fill="#fcc98f"/>
      <path id="Path_807" data-name="Path 807" d="M472.033,132.13c-17.6,0-15.054,34.931,0,34.931S492.877,132.13,472.033,132.13Z" transform="translate(-437.135 -125.974)" fill="#fcc98f"/>
      <path id="Path_808" data-name="Path 808" d="M474.891,179.85s-.144,8.3-8.129,8.3-7.591-8.551-7.591-8.551a21.908,21.908,0,0,0-6.853,5.121c-3.493,3.741-12.359,22.574-13.606,27.564s-1.248,23.454-1,26.947c0,0,5.241,1.247,6.487.5,0,0,1.157-20.117,3.154-25.855s7.949-16.937,7.949-16.937.87,12.515,1.618,16.756-3.739,15.8-3.988,22.292c0,0,14.97,7.985,33.683-.5,0,0-6.9-19.4-6.4-23.148s1.415-13.779,1.415-13.779,5.988,7.111,7.111,10.23-1.747,17.715-2,18.339,2.246,4.741,2.994,5.114,7.36-18.214,6.986-24.327-13.848-25.2-15.47-26.323S474.891,179.85,474.891,179.85Z" transform="translate(-432.558 -135.769)" fill="#1d5b79"/>
      <path id="Path_809" data-name="Path 809" d="M477.046,139.6s-13.64,10.4-23.287,9.148c0,0-1.747-16.634,10.146-22.457s16.218,3.493,16.218,3.493,12.143,2,8.816,17.633C488.939,147.413,479.125,145.5,477.046,139.6Z" transform="translate(-435.877 -124.373)" fill="#9b5023"/>
      <path id="Path_810" data-name="Path 810" d="M499.279,239.176s-6.435,3.948-4.679,6.874,5.849,1.023,7.019-3.218Z" transform="translate(-444.26 -148.062)" fill="#fcc98f"/>
      <path id="Path_811" data-name="Path 811" d="M477.558,139.541c-2.775,1.521-5.389,3.29-8.247,4.661-3.421,1.64-7.091,1.875-10.626,3.056a.6.6,0,0,0,.159,1.172c7.156-.085,13.75-3.962,19.078-8.418C478.192,139.785,477.848,139.382,477.558,139.541Z" transform="translate(-436.825 -127.495)" fill="#b55e2d"/>
      <path id="Path_812" data-name="Path 812" d="M477.675,137.249c-4.129,2.711-8.737,3.164-13.237,4.867-.462.175-.443,1,.126.931,4.721-.536,9.891-2.094,13.491-5.307A.314.314,0,0,0,477.675,137.249Z" transform="translate(-438.032 -127.02)" fill="#b55e2d"/>
      <path id="Path_813" data-name="Path 813" d="M492.273,146.431a27.287,27.287,0,0,1-4.5-1.625c-1.548-.9-2.126-2.449-2.8-4-.123-.286-.579-.08-.494.209.556,1.876,1.079,3.36,2.657,4.618a8.417,8.417,0,0,0,5.006,1.755A.489.489,0,0,0,492.273,146.431Z" transform="translate(-442.232 -127.736)" fill="#b55e2d"/>
      <path id="Path_814" data-name="Path 814" d="M491.874,143.553c-2.448-.9-4.31-1.865-5.672-4.194-.129-.222-.525-.071-.425.179,1.021,2.549,3.143,4.615,6,4.721C492.208,144.275,492.235,143.686,491.874,143.553Z" transform="translate(-442.499 -127.443)" fill="#b55e2d"/>
      <path id="Path_815" data-name="Path 815" d="M469.743,156.014c-.176-.771-1.567-.748-1.76,0a3.123,3.123,0,0,0,.225,1.907c.326.726,1.487.563,1.552-.107A3.357,3.357,0,0,0,469.743,156.014Z" transform="translate(-438.817 -130.785)" fill="#9b5023"/>
      <path id="Path_816" data-name="Path 816" d="M482.007,156.014c.176-.771,1.567-.748,1.76,0a3.129,3.129,0,0,1-.225,1.907c-.327.726-1.487.563-1.552-.107A3.349,3.349,0,0,1,482.007,156.014Z" transform="translate(-441.697 -130.785)" fill="#9b5023"/>
      <path id="Path_817" data-name="Path 817" d="M475.73,162.938a1.533,1.533,0,0,1-1.443-.1.216.216,0,0,0-.261.338c.513.491,1.549.974,2.014.167A.277.277,0,0,0,475.73,162.938Z" transform="translate(-440.064 -132.303)" fill="#fab37c"/>
      <path id="Path_818" data-name="Path 818" d="M485.833,159.282a2.2,2.2,0,1,0,2.2,2.2A2.221,2.221,0,0,0,485.833,159.282Z" transform="translate(-442.06 -131.576)" fill="#f69a7f"/>
      <path id="Path_819" data-name="Path 819" d="M464.336,159.282a2.2,2.2,0,1,0,2.2,2.2A2.221,2.221,0,0,0,464.336,159.282Z" transform="translate(-437.624 -131.576)" fill="#f69a7f"/>
      <path id="Path_820" data-name="Path 820" d="M473.085,166.241c.512-.426,3.971-.413,4.467.052s-.124,2.535-2.234,2.742S472.588,166.655,473.085,166.241Z" transform="translate(-439.85 -132.949)" fill="#f27363"/>
      <path id="Path_821" data-name="Path 821" d="M477.515,168.074c-2.244-1.17-3.517-.387-4.1.256a2.034,2.034,0,0,0,2.008,1.022A2.666,2.666,0,0,0,477.515,168.074Z" transform="translate(-439.95 -133.266)" fill="#f69a7f"/>
      <path id="Path_822" data-name="Path 822" d="M469.364,155.813a.373.373,0,0,0,0,.745A.373.373,0,0,0,469.364,155.813Z" transform="translate(-439.041 -130.861)" fill="#fff"/>
      <path id="Path_823" data-name="Path 823" d="M483.524,155.813a.373.373,0,0,0,0,.745A.373.373,0,0,0,483.524,155.813Z" transform="translate(-441.963 -130.861)" fill="#fff"/>
      <g id="Group_2222" data-name="Group 2222" transform="translate(27.5 177.265)">
        <path id="Path_824" data-name="Path 824" d="M472.9,349.933a15.862,15.862,0,0,1-6.994.751c.052.625.091,1.033.112,1.169.375,2.371,5.614,1.374,6.612.375A8.368,8.368,0,0,0,472.9,349.933Z" transform="translate(-465.901 -348.181)" fill="#6aa9b5"/>
        <path id="Path_825" data-name="Path 825" d="M491.024,348.114c-.5-.066-1-.162-1.5-.266a15.684,15.684,0,0,0,.324,1.928c.748,2,5.239,1.871,6.487-.125a6.994,6.994,0,0,0,.235-1.926A14.159,14.159,0,0,1,491.024,348.114Z" transform="translate(-470.776 -347.725)" fill="#6aa9b5"/>
      </g>
      <path id="Path_826" data-name="Path 826" d="M461.5,369.66a8.551,8.551,0,0,1-.711-.84c-.187-.276-.185-.626-.44-.852a.3.3,0,0,0-.425,0c-.629.808.385,2.12,1.19,2.356A.4.4,0,0,0,461.5,369.66Z" transform="translate(-437.128 -174.62)" fill="#73b8c4"/>
      <path id="Path_827" data-name="Path 827" d="M465.428,369.308a3.659,3.659,0,0,1-.686-1.084c-.158-.427-.2-.889-.363-1.314a.3.3,0,0,0-.59.079c-.035,1.056.183,2.353,1.2,2.883A.361.361,0,0,0,465.428,369.308Z" transform="translate(-437.965 -174.376)" fill="#73b8c4"/>
      <path id="Path_828" data-name="Path 828" d="M500.4,366.6a.327.327,0,0,0-.556,0,5.52,5.52,0,0,0-.4,1.176c-.2.539-.559,1-.786,1.519-.16.368.186.837.59.59a2.753,2.753,0,0,0,1.038-1.555C500.45,367.874,500.722,367.031,500.4,366.6Z" transform="translate(-445.153 -174.322)" fill="#73b8c4"/>
      <path id="Path_829" data-name="Path 829" d="M503.886,367.77c-.062-.256-.509-.285-.548,0a4.682,4.682,0,0,1-.29,1.24c-.172.406-.429.766-.6,1.175-.122.3.286.583.535.412A2.73,2.73,0,0,0,503.886,367.77Z" transform="translate(-445.937 -174.555)" fill="#73b8c4"/>
      <path id="Path_830" data-name="Path 830" d="M465.44,255.685a.281.281,0,0,0-.539,0c-.34,1.808-1.634,2.887-2.979,4-.3.247.021.748.371.637C463.861,259.827,465.794,257.4,465.44,255.685Z" transform="translate(-437.556 -151.427)" fill="#6aa9b5"/>
      <path id="Path_831" data-name="Path 831" d="M493.142,259.19a16.538,16.538,0,0,1-2.735-1,4.351,4.351,0,0,1-2.04-2.372.246.246,0,0,0-.448.058c-.376,2.514,3.116,4.028,5.11,4.14C493.518,260.04,493.579,259.327,493.142,259.19Z" transform="translate(-442.938 -151.471)" fill="#6aa9b5"/>
      <path id="Path_832" data-name="Path 832" d="M468.776,152.029a1.922,1.922,0,0,0-1.635.883c-.094.168.065.437.272.355a3.425,3.425,0,0,1,1.106-.355,1.165,1.165,0,0,1,.633.137c.206.113.3.271.543.317a.35.35,0,0,0,.434-.331C470.173,152.353,469.323,152.072,468.776,152.029Z" transform="translate(-438.651 -130.079)" fill="#9b5023"/>
      <path id="Path_833" data-name="Path 833" d="M482.367,152.029a1.92,1.92,0,0,1,1.634.883c.094.168-.064.437-.271.355a3.426,3.426,0,0,0-1.106-.355,1.165,1.165,0,0,0-.633.137c-.206.113-.3.271-.544.317a.349.349,0,0,1-.433-.331C480.969,152.353,481.818,152.072,482.367,152.029Z" transform="translate(-441.519 -130.079)" fill="#9b5023"/>
      <g id="Group_2224" data-name="Group 2224" transform="translate(15.898 53.614)">
        <g id="Group_2223" data-name="Group 2223">
          <path id="Path_834" data-name="Path 834" d="M485.74,210.912c.083-.84.162-1.652.234-2.408a64.846,64.846,0,0,1-12.936,1.049,85.621,85.621,0,0,1-12.575-.94c.052.632.108,1.288.166,1.956a82.366,82.366,0,0,0,9.865,1.06A63.713,63.713,0,0,0,485.74,210.912Z" transform="translate(-453.177 -195.347)" fill="#1d5b79"/>
          <path id="Path_835" data-name="Path 835" d="M487.825,238.9a47.384,47.384,0,0,1-15.175,2.529c-4.771.031-9.547-.325-14.318-.549q-.288,1.225-.529,2.4c2.51.116,4.975.19,7.283.368,6.375.494,12.752.713,19.076-.379a28.044,28.044,0,0,0,4.669-1.274C488.51,241.023,488.169,239.98,487.825,238.9Z" transform="translate(-452.628 -201.618)" fill="#1d5b79"/>
          <path id="Path_836" data-name="Path 836" d="M452.022,191.926c-.243.421-.489.856-.74,1.31,10.918,9.609,28.971,10.037,42.519,4.635q-.611-1.006-1.24-2C479.193,200.348,463.027,201.3,452.022,191.926Z" transform="translate(-451.282 -191.926)" fill="#1d5b79"/>
          <path id="Path_837" data-name="Path 837" d="M485.186,220.785c.011-.082.023-.183.034-.271a59.709,59.709,0,0,1-13.256,1.179,74.136,74.136,0,0,1-10.278-.928c.07.517.141.982.21,1.375a6.85,6.85,0,0,1,.072,1.216,65.66,65.66,0,0,0,23.506.371A10.645,10.645,0,0,1,485.186,220.785Z" transform="translate(-453.429 -197.825)" fill="#1d5b79"/>
          <path id="Path_838" data-name="Path 838" d="M496.465,207.022c.479.624.977,1.29,1.467,1.969a76.353,76.353,0,0,0,8.7-2.29c-.385-.772-.8-1.573-1.255-2.392A64.352,64.352,0,0,1,496.465,207.022Z" transform="translate(-460.605 -194.481)" fill="#1d5b79"/>
          <path id="Path_839" data-name="Path 839" d="M472.284,234.629a120.53,120.53,0,0,0,14.866-1.083c-.29-.967-.57-1.929-.829-2.86-4.06.7-8.2,1.056-12.283,1.365a95.929,95.929,0,0,1-13.533.157q-.229.958-.476,1.95A94.068,94.068,0,0,0,472.284,234.629Z" transform="translate(-453.087 -199.924)" fill="#1d5b79"/>
        </g>
      </g>
      <path id="Path_840" data-name="Path 840" d="M482.616,180.332c-1.443-.314-2.7-.482-2.7-.482s.307,6.587-7.678,6.587-8.041-6.836-8.041-6.836-.937.482-2.276,1.3c.1,4.172,1.775,9.852,11.04,8.788C481.79,188.671,482.558,184.4,482.616,180.332Z" transform="translate(-437.579 -135.769)" fill="#1d5b79"/>
      <path id="Path_841" data-name="Path 841" d="M444.21,254.486s.056-.981.166-2.569a24.557,24.557,0,0,1-6.752-.821h0c.012.631.025,1.194.042,1.674,0,.031,0,.06,0,.09.007.189.013.36.021.52,0,.045,0,.094.006.136.009.176.017.337.027.47,0,0,1.31.313,2.776.531.367.055.743.1,1.111.14A5.163,5.163,0,0,0,444.21,254.486Z" transform="translate(-432.566 -150.522)" fill="#a2ddf8"/>
      <path id="Path_842" data-name="Path 842" d="M488.513,248.316a14.707,14.707,0,0,1-1.271-1.968c-13.118,3.484-25.739,1.152-29.984.152a9.358,9.358,0,0,0-.332,2.275A45.773,45.773,0,0,0,488.513,248.316Z" transform="matrix(1, -0.017, 0.017, 1, -440.819, -139.214)" fill="#0d415d"/>
      <path id="Path_843" data-name="Path 843" d="M503.073,239.894a7.52,7.52,0,0,0-3.416-1.085c-.066.293-.113.482-.137.541-.249.623,2.246,4.741,2.994,5.114.215.108.917-1.36,1.8-3.646A5.919,5.919,0,0,0,503.073,239.894Z" transform="translate(-445.334 -147.986)" fill="#a2ddf8"/>
      <g id="Group_2225" data-name="Group 2225" transform="translate(55.2 70.889)">
        <path id="Path_844" data-name="Path 844" d="M502.321,217.774a16.88,16.88,0,0,0,7.726-1.646,10.583,10.583,0,0,0,0-1.173,7.191,7.191,0,0,0-.211-1.262c-2.559,1.046-4.874,2.483-7.661,2.556A8.828,8.828,0,0,1,502.321,217.774Z" transform="translate(-501.086 -213.693)" fill="#1d5b79"/>
        <path id="Path_845" data-name="Path 845" d="M508.362,226.74c.2-.736.383-1.465.553-2.179-2.277.274-4.783.425-6.889-.5-.053.525-.114,1.063-.182,1.606A9.6,9.6,0,0,0,508.362,226.74Z" transform="translate(-501.017 -215.831)" fill="#1d5b79"/>
        <path id="Path_846" data-name="Path 846" d="M506.83,232.7a17.558,17.558,0,0,1-5.761-1.679q-.133.827-.267,1.6a11.994,11.994,0,0,0,5.24,2.512C506.305,234.346,506.57,233.53,506.83,232.7Z" transform="translate(-500.802 -217.268)" fill="#1d5b79"/>
      </g>
      <g id="Group_2226" data-name="Group 2226" transform="translate(5.029 61.163)">
        <path id="Path_847" data-name="Path 847" d="M443.892,230.081a15.909,15.909,0,0,1-5.878-1.039c-.04.642-.076,1.306-.109,1.986a19.673,19.673,0,0,0,7.873,1.807c.12-.95.246-1.874.378-2.758C445.4,230.084,444.641,230.1,443.892,230.081Z" transform="translate(-437.653 -207.134)" fill="#1d5b79"/>
        <path id="Path_848" data-name="Path 848" d="M444.764,245.019c.059-.7.122-1.433.19-2.178-2.474.3-4.918,1.051-7.358.322,0,.506-.007,1-.009,1.49A12.031,12.031,0,0,0,444.764,245.019Z" transform="translate(-437.587 -209.981)" fill="#1d5b79"/>
        <path id="Path_849" data-name="Path 849" d="M454.543,205.792c-2.365-1.371-6.117-1.746-7.555-4.354-.27.548-.536,1.1-.8,1.65a9.82,9.82,0,0,0,7.824,4.359c.254-.513.5-1.01.741-1.482A.943.943,0,0,0,454.543,205.792Z" transform="translate(-439.362 -201.438)" fill="#1d5b79"/>
        <path id="Path_850" data-name="Path 850" d="M441.261,213.854c-.384.924-.729,1.786-1.024,2.566a15.685,15.685,0,0,0,7.819,4.1c.32-.879.719-1.864,1.167-2.906C446.367,216.8,443.251,215.858,441.261,213.854Z" transform="translate(-438.134 -204)" fill="#1d5b79"/>
      </g>
      <path id="Path_851" data-name="Path 851" d="M475.937,190.8c-6.759,1.572-15.113-.021-17.406-7.254q-.3.261-.614.547c1.317,6.883,8.276,9.647,14.933,9.119,4.807-.381,12.146-3.04,15.238-7.68-.69-.928-1.287-1.691-1.752-2.244A16.944,16.944,0,0,1,475.937,190.8Z" transform="translate(-436.754 -136.53)" fill="#1d5b79"/>
    </g>
    <path id="Path_852" data-name="Path 852" d="M349.888,243.186c-.548-1.786-3.164-2.614-4.86-2.231a3.311,3.311,0,0,0-2.593,3.269c-3.1.09-4.4,3.738-2.627,6.59a.743.743,0,0,0,1.353-.57c-.587-1.906-.641-4.8,2.18-3.825a1.042,1.042,0,0,0,1.311-1c-.016-1.139-.167-2.281,1.278-2.287,1.092,0,1.923.9,2.969,1.043C349.467,244.252,350.088,243.835,349.888,243.186Z" transform="translate(-2.07 -27.942)" fill="#96c5dc"/>
    <path id="Path_853" data-name="Path 853" d="M362.509,247.155c-2.033-2.69-5.415-1.3-6.564,1.273a2.4,2.4,0,0,0-2.511.526c-1.092,1.227-.937,2.793-.461,4.267.2.6,1.247.534,1.164-.159-.179-1.5.036-3.637,1.965-2.347a1.079,1.079,0,0,0,1.474-.386c.4-.724.656-1.659,1.5-1.985.713-.275,1.838.206,2.589.275A.979.979,0,0,0,362.509,247.155Z" transform="translate(-4.877 -28.939)" fill="#96c5dc"/>
    <path id="Path_854" data-name="Path 854" d="M551.89,156.6a6.1,6.1,0,0,0-5.141,0,18.607,18.607,0,0,1-.87-2.23.946.946,0,0,0-1.138-.646,6.516,6.516,0,0,0-4.568,2.643c-.3.424.3,1.036.724.724a7.859,7.859,0,0,1,3.4-1.451,9.127,9.127,0,0,1,.71,2.575,1.121,1.121,0,0,0,1.666.956,6.424,6.424,0,0,1,3.091-.674c1.67.041,1.493,1.182,1.414,2.469a.831.831,0,0,0,1.408.583A2.993,2.993,0,0,0,551.89,156.6Z" transform="translate(-43.563 -9.957)" fill="#96c5dc"/>
    <path id="Path_855" data-name="Path 855" d="M435.938,181.164c-1.647.16-2.953,1.5-3.991,2.808-3.151-1.857-5.679,1.9-5.371,5.4a.722.722,0,0,0,1.413.19c.417-1.564,1.091-5.452,3.395-3.314a1.116,1.116,0,0,0,1.717-.221,11.264,11.264,0,0,1,2.191-2.35c1.357-1.039,2.1.335,2.884,1.313a.7.7,0,0,0,1.191-.494C439.16,182.63,438.016,180.961,435.938,181.164Z" transform="translate(-20.134 -15.619)" fill="#96c5dc"/>
    <path id="Path_856" data-name="Path 856" d="M591.83,293.571a.722.722,0,0,0,1.129.871c1.343-1.278,3.584-.6,5.019.173a2.628,2.628,0,0,1,1.329,1.393c.3.781.747,1.256,1.626,1.1a1.223,1.223,0,0,0,.889-.89C602.453,291.73,593.813,289.718,591.83,293.571Z" transform="translate(-54.22 -38.397)" fill="#96c5dc"/>
    <path id="Path_857" data-name="Path 857" d="M576.96,363.118a2.467,2.467,0,0,0-.762-.954c-.371-.371-.7-.786-1.094-1.133-.214-.19-.64-.013-.522.3a4.594,4.594,0,0,0,.721,1.2c.307.4.645.956,1.165,1.071A.405.405,0,0,0,576.96,363.118Z" transform="translate(-50.675 -52.721)" fill="#b0bf69"/>
    <path id="Path_858" data-name="Path 858" d="M578.61,360.448a25.29,25.29,0,0,0-.5-2.891c-.134-.54-.9-.3-.815.225.156.961.216,1.94.288,2.911a5.062,5.062,0,0,0,.325,1.976.418.418,0,0,0,.757-.1A4.74,4.74,0,0,0,578.61,360.448Z" transform="translate(-51.237 -51.957)" fill="#b0bf69"/>
    <path id="Path_859" data-name="Path 859" d="M581.118,361.068a5.552,5.552,0,0,0-.875,2.426.324.324,0,0,0,.6.162c.386-.689.523-1.525.861-2.246C581.886,361.021,581.326,360.678,581.118,361.068Z" transform="translate(-51.847 -52.709)" fill="#b0bf69"/>
    <path id="Path_860" data-name="Path 860" d="M584.1,361.933c-.444.4-.917.769-1.347,1.19a.394.394,0,0,0,.475.615,7.985,7.985,0,0,0,1.551-1.127C585.247,362.208,584.56,361.514,584.1,361.933Z" transform="translate(-52.341 -52.897)" fill="#b0bf69"/>
    <path id="Path_861" data-name="Path 861" d="M542.838,387.531c-.867-.887-1.92-1.608-2.859-2.418a.378.378,0,0,0-.535.535,20.875,20.875,0,0,0,2.794,2.661C542.709,388.642,543.22,387.922,542.838,387.531Z" transform="translate(-43.405 -57.686)" fill="#b0bf69"/>
    <path id="Path_862" data-name="Path 862" d="M545.657,384.664a.41.41,0,0,0-.819,0,16.852,16.852,0,0,1-.528,2.715c-.06.34.375.706.648.377A4.219,4.219,0,0,0,545.657,384.664Z" transform="translate(-44.432 -57.532)" fill="#b0bf69"/>
    <path id="Path_863" data-name="Path 863" d="M546.381,386.63a4.3,4.3,0,0,1-.9,1.555.389.389,0,0,0,.47.608,3.121,3.121,0,0,0,1.429-1.889C547.569,386.268,546.575,386,546.381,386.63Z" transform="translate(-44.652 -57.945)" fill="#b0bf69"/>
    <path id="Path_864" data-name="Path 864" d="M488.561,388.412a.5.5,0,0,0-.968.267,14.358,14.358,0,0,1,.384,3.235c.011.539-.028,1.1-.02,1.659a5.339,5.339,0,0,0-1.684-1.652c-.329-.214-.659.256-.406.525.6.638,1.012,1.426,1.623,2.041a.442.442,0,0,0,.567.025,3.415,3.415,0,0,0,.077.372.528.528,0,0,0,1.011,0C489.738,393.007,489.162,390.239,488.561,388.412Z" transform="translate(-32.355 -58.315)" fill="#b0bf69"/>
    <path id="Path_865" data-name="Path 865" d="M491.256,392.643c-.33.948-1.087,1.945-1.094,2.967a.515.515,0,0,0,.872.361,7.14,7.14,0,0,0,1.31-3.029A.564.564,0,0,0,491.256,392.643Z" transform="translate(-33.26 -59.179)" fill="#b0bf69"/>
    <path id="Path_866" data-name="Path 866" d="M495.009,394.386a13.041,13.041,0,0,0-1.7,1.4.355.355,0,0,0,.343.589,3.622,3.622,0,0,0,1.89-1.578C495.765,394.448,495.289,394.162,495.009,394.386Z" transform="translate(-33.889 -59.604)" fill="#b0bf69"/>
    <path id="Path_867" data-name="Path 867" d="M436.081,390.813c-.467-.456-.427-1.675-.451-2.262-.039-.939.021-1.877-.007-2.816a.384.384,0,0,0-.767,0c-.042.92-.543,3.12-.2,4.523a3.762,3.762,0,0,1-.428-.483,2.337,2.337,0,0,1-.36-1.221.322.322,0,0,0-.643,0c-.029.9.349,2.327,1.358,2.583a.333.333,0,0,0,.377-.176,1.218,1.218,0,0,0,.737.509A.4.4,0,0,0,436.081,390.813Z" transform="translate(-21.511 -57.758)" fill="#b0bf69"/>
    <path id="Path_868" data-name="Path 868" d="M438.481,389.7c-.211.489-.445.965-.7,1.434a1.7,1.7,0,0,0-.369,1.179.391.391,0,0,0,.476.271c.436-.1.629-.548.813-.912.26-.515.49-1.045.7-1.581S438.707,389.18,438.481,389.7Z" transform="translate(-22.371 -58.602)" fill="#b0bf69"/>
    <path id="Path_869" data-name="Path 869" d="M441.737,390.161a20.356,20.356,0,0,1-1.317,1.648c-.22.27.069.748.4.519a5.674,5.674,0,0,0,1.57-1.786C442.646,390.123,442,389.757,441.737,390.161Z" transform="translate(-22.98 -58.712)" fill="#b0bf69"/>
    <path id="Path_870" data-name="Path 870" d="M351.484,362.14a.337.337,0,0,0-.613.258,8.179,8.179,0,0,1,.368,2.574,12.848,12.848,0,0,1-.382,2.044,10.158,10.158,0,0,0-1.367-1.177,22.905,22.905,0,0,0-2.065-1.575c-.33-.213-.725.289-.422.547.629.538,1.221,1.125,1.818,1.7.488.467,1.01,1.132,1.7,1.279a.443.443,0,0,0,.276-.044.422.422,0,0,0,.763.136C352.655,366.377,352.386,363.663,351.484,362.14Z" transform="translate(-3.697 -52.933)" fill="#b0bf69"/>
    <path id="Path_871" data-name="Path 871" d="M355.083,367.33A3.645,3.645,0,0,0,354.26,369c-.034.408.472.513.729.3a6.412,6.412,0,0,0,.992-1.448C356.356,367.294,355.461,366.785,355.083,367.33Z" transform="translate(-5.217 -53.989)" fill="#b0bf69"/>
    <path id="Path_872" data-name="Path 872" d="M480.317,354.938a.367.367,0,0,0-.574.443,5.007,5.007,0,0,0,.9,1.486.373.373,0,0,0,.631-.261A2.8,2.8,0,0,0,480.317,354.938Z" transform="translate(-31.101 -51.458)" fill="#b0bf69"/>
    <path id="Path_873" data-name="Path 873" d="M483.537,352.922c-.15-.585-.971-.325-.883.243a4.3,4.3,0,0,1-.077,1.7,6.394,6.394,0,0,0-.45,1.562.41.41,0,0,0,.61.349C483.961,356.155,483.822,354.02,483.537,352.922Z" transform="translate(-31.602 -50.996)" fill="#b0bf69"/>
    <path id="Path_874" data-name="Path 874" d="M486.427,352.894c-.3.556-.628,1.1-.958,1.641a4.09,4.09,0,0,0-.767,1.635c-.041.327.377.391.571.237a3.953,3.953,0,0,0,.933-1.441c.287-.568.564-1.14.821-1.721C487.205,352.845,486.647,352.492,486.427,352.894Z" transform="translate(-32.132 -51.022)" fill="#b0bf69"/>
    <path id="Path_875" data-name="Path 875" d="M509,356.451c-.367.464-.812.856-1.189,1.308a5.136,5.136,0,0,0-.53-.675l-1.015-1.122c-.357-.393-.9.176-.574.573l.822,1.01a3.3,3.3,0,0,0,.976.984.368.368,0,0,0,.24.025.354.354,0,0,0,.333.07,3.923,3.923,0,0,0,1.74-1.555C510.138,356.6,509.355,356,509,356.451Z" transform="translate(-36.443 -51.664)" fill="#b0bf69"/>
    <path id="Path_876" data-name="Path 876" d="M382.381,389.676a2.9,2.9,0,0,0-.8-1.027,14.958,14.958,0,0,0-1.085-1.325.3.3,0,0,0-.493.286,4.2,4.2,0,0,0,.745,1.437c.286.432.6.983,1.12,1.137A.418.418,0,0,0,382.381,389.676Z" transform="translate(-10.528 -58.146)" fill="#b0bf69"/>
    <path id="Path_877" data-name="Path 877" d="M386.381,384.341a22.177,22.177,0,0,0-1.557,2.586,8.522,8.522,0,0,0-.61,1.4,4.893,4.893,0,0,0-.312-1.259,6.957,6.957,0,0,0-1.176-2.248c-.379-.451-1.159.149-.816.629.777,1.092.7,2.574,1.489,3.617a.443.443,0,0,0,.7.031,1.708,1.708,0,0,0,.062.442.471.471,0,0,0,.78.206,7.8,7.8,0,0,0,.947-2.2,18.655,18.655,0,0,1,1.464-2.639C387.75,384.292,386.789,383.75,386.381,384.341Z" transform="translate(-10.905 -57.495)" fill="#b0bf69"/>
    <path id="Path_878" data-name="Path 878" d="M389.176,387.747c-.8.619-1.89,1.309-2.277,2.273a.465.465,0,0,0,.569.569,4.008,4.008,0,0,0,1.254-.883c.43-.375.858-.751,1.3-1.111C390.629,388.1,389.774,387.283,389.176,387.747Z" transform="translate(-11.947 -58.222)" fill="#b0bf69"/>
  </g>
</svg>
