<svg xmlns="http://www.w3.org/2000/svg" width="230.299" height="239.838"><g data-name="Group 2228"><path data-name="Path 739" d="M143.83 1.78c18.911 3.32 38.846 9.9 53.565 22.41 15.1 12.826 22.383 34.93 25.395 53.613 2.9 17.967 1.964 35.924 1.443 54.006-.54 18.775-2.6 38.951-11.869 56.051-10.34 19.078-29.594 31.779-50.375 38.096-24.343 7.4-50.672 6.311-75.672 1.434-5.026-.981-10.02-2.11-15.014-3.24-6.8-1.539-13.691-3.109-19.855-6.308-8.809-4.572-15.548-12.165-21.407-20.046-14.3-19.237-24.681-41.457-28.553-64.923a110.624 110.624 0 0129.266-94.569C58.586 8.941 103.696-5.264 143.83 1.78z" fill="#c6e9fa"/><path data-name="Path 740" d="M139.136 23.663c16.087 2.823 33.042 8.425 45.563 19.062 12.841 10.91 19.04 29.714 21.6 45.605 2.464 15.283 1.67 30.558 1.227 45.939-.46 15.97-2.21 33.133-10.1 47.678-8.8 16.227-25.172 27.031-42.85 32.4-20.706 6.294-43.1 5.369-64.367 1.22-4.275-.834-8.524-1.794-12.771-2.755-5.785-1.31-11.647-2.644-16.891-5.367-7.492-3.889-13.225-10.347-18.209-17.051-12.164-16.364-20.994-35.265-24.288-55.225a94.1 94.1 0 0124.894-80.443c23.682-24.973 62.053-37.055 96.192-31.063z" fill="#a2ddf8"/><path data-name="Path 741" d="M28.574 150.495a11.537 11.537 0 0117.5-13.409c2.44-7.091 5.232-14.241 10.076-19.965s12.131-9.865 19.6-9.163c8.614.813 15.389 7.619 20.494 14.6a13.612 13.612 0 0123.357 4.2 50.051 50.051 0 0129.757-13.826c13.237-1.3 27.81 3.7 34.669 15.095 5.014 8.333 5.27 18.582 5.385 28.307a9.51 9.51 0 0115.8 9.111c3.4-1.625 7.528 1.53 8.33 5.21s-.667 7.44-2.166 10.9c-1.546 3.564-3.192 7.156-5.733 10.1-6.664 7.707-17.811 9.325-27.957 10.27q-37.99 3.535-76.183 3.942c-23.237.246-47.807-.759-67.423-13.222-5.825-3.7-11.26-8.646-13.492-15.177-.882-2.583-1.229-5.316-2-7.933-1.336-4.533-3.966-9.1-2.8-13.676 1.317-5.184 8.157-8.058 12.786-5.364z" fill="#fff"/><path data-name="Path 742" d="M47.623 167.617a8.984 8.984 0 0113.627-10.441c1.9-5.521 4.074-11.087 7.845-15.545s9.446-7.682 15.26-7.134c6.707.633 11.982 5.932 15.957 11.371a10.6 10.6 0 0118.186 3.274 38.972 38.972 0 0123.171-10.764c10.306-1.013 21.654 2.88 26.994 11.753 3.9 6.489 4.1 14.469 4.193 22.041a7.405 7.405 0 0112.3 7.094c2.647-1.266 5.86 1.191 6.485 4.057s-.518 5.793-1.686 8.484a29.933 29.933 0 01-4.464 7.86c-5.19 6-13.868 7.263-21.768 8q-29.58 2.754-59.319 3.07c-18.093.192-37.225-.591-52.5-10.295-4.536-2.882-8.768-6.733-10.5-11.818-.687-2.01-.957-4.139-1.558-6.175-1.04-3.529-3.089-7.084-2.179-10.649a7.093 7.093 0 019.956-4.183z" fill="#e1f3fc"/><path data-name="Path 743" d="M164.779 46.852a9.136 9.136 0 00-9.845 3.28c-3.426 4.738-1.491 11.306-2.175 17.113a7.754 7.754 0 00-3.768-1.225 2.667 2.667 0 00-2.7 2.39c.046 1.913 2.54 2.575 4.452 2.661a279.671 279.671 0 0034.041-.552 3.964 3.964 0 00-6.47-4.521c1.355-.442 1.62-2.221 1.567-3.646-.116-3.175-.745-6.6-3.078-8.755s-6.8-2.082-8.139.8c.155-2.136.093-4.521-1.374-6.083a5.747 5.747 0 00-2.511-1.462z" fill="#fff"/><path data-name="Path 744" d="M81.386 41.611a5.937 5.937 0 018.563.156 6.378 6.378 0 011.336 2.826c.6 2.944-1.072 6.36-3.967 7.169a10.4 10.4 0 01-2.656.266l-10.63.141c-9.09.122-18.207.242-27.242-.76l.051-1.443a40.49 40.49 0 019.513-3.722c-1.613-2.988-1.559-7.066.848-9.46s7.233-1.982 8.569 1.139a12.438 12.438 0 018.271-10.425 5.852 5.852 0 014.552.063c1.526.816 2.306 2.552 2.752 4.225a19.465 19.465 0 01.04 9.825z" fill="#fff"/><path data-name="Path 745" d="M73.743 96.093c2.77 3.6 3.6 8.288 4.237 12.785q1.676 11.779 2.41 23.667c.5 8.056.571 16.561-3.256 23.668a17.675 17.675 0 01-9.9 8.731c-4.633 1.443-9.7.364-14.178-1.506a46.119 46.119 0 01-23.886-23.966c-2.907-6.6-4.125-14.939.4-20.555 1.564-1.938 3.79-3.546 4.331-5.976.444-1.991-.379-4.033-1.3-5.852-2.552-5.021-6-9.579-8.149-14.785a32.632 32.632 0 0127.79-44.984 12.117 12.117 0 016.416.92 10.736 10.736 0 014.214 4.4c3.583 6.292 3.349 14.02 2.346 21.191-.648 4.641-1.514 9.667.729 13.783 1.851 3.379 5.443 5.426 7.796 8.479z" fill="#d0e07a"/><path data-name="Path 746" d="M69.525 174.427c-1.989-11.868-4.343-23.673-6.948-35.42-1.476-6.659-3.052-13.295-4.667-19.922a.994.994 0 001.076-1.444 15.377 15.377 0 00-2.014-2.394q-.632-2.569-1.268-5.134a36.539 36.539 0 014.183-7.181 21.862 21.862 0 004.368-7.9.72.72 0 00-1.388-.383c-1.056 3.585-3.588 6.236-5.887 9.077a26.725 26.725 0 00-2.129 2.937q-.3-1.192-.588-2.383-1.079-4.338-2.15-8.678c2.606-4.77 2.714-11.691 3.577-16.791.175-1.033-1.38-1.49-1.59-.439-.61 3.033-1.152 6.078-1.814 9.1a42.814 42.814 0 01-1.186 4.146c-.231-.9-.452-1.81-.689-2.713a.686.686 0 00.1-1.06c-.153-.128-.324-.233-.484-.351-1.521-5.489-3.561-10.748-4.037-16.487-.09-1.073-1.736-1.1-1.693 0a72.356 72.356 0 002.358 14.53c-.363-.183-.725-.364-1.081-.553-2.091-1.113-4.145-2.29-6.132-3.584-.56-.364-1.027.5-.513.878 1.7 1.256 3.453 2.417 5.243 3.537 1 .623 2 1.3 3.037 1.91 1.156 4.448 2.429 8.866 3.385 13.216q1.182 5.387 2.348 10.779a47.952 47.952 0 00-7.372-5.156.847.847 0 00-.854 1.461 48.991 48.991 0 016.927 5.229c.717.643 1.4 1.346 2.072 2.055q2.2 10.26 4.293 20.545c2.38 11.827 4.414 23.722 6.183 35.656 1.69 11.395 2.384 23.079 4.327 34.391.371 2.168 3.648 1.958 4.161 0 2.525-9.622-1.549-21.902-3.154-31.474z" fill="#b0bf69"/><path data-name="Path 747" d="M169.714 160.264a72.917 72.917 0 01-20.364-32.833c-1.489-5.073-2.3-10.942.659-15.321 3.626-5.36 12.114-7.263 13.2-13.641.336-1.96-.162-3.951-.467-5.916a31.456 31.456 0 0112.743-29.916c2.913-2.04 6.234-3.623 8.544-6.33 3.779-4.432 4.008-10.778 5.919-16.28a27.364 27.364 0 0123.057-17.866 4.82 4.82 0 013.152.529 4.176 4.176 0 011.2 1.44c2.735 4.85 1.133 10.854.09 16.324s-.948 12.191 3.669 15.3c1.787 1.2 4.009 1.648 5.765 2.9 4.559 3.239 4.066 10.354 1.352 15.244s-7.06 8.8-9.282 13.937c-3.533 8.161-1.045 17.493.488 26.253s1.481 19.147-5.32 24.878c-3.161 2.663-7.386 3.9-10.321 6.81-1.9 1.885-3.117 4.332-4.633 6.537a28.181 28.181 0 01-18.447 11.7 12.46 12.46 0 01-5.266-.066 14.452 14.452 0 01-5.738-3.683z" fill="#d0e07a"/><path data-name="Path 748" d="M205.546 79.433c-4.5 2.228-9.979 4.449-14.11 7.822.143-.613.279-1.228.427-1.841 2.869-11.946 7.943-22.965 11.534-34.657.469-1.529-1.844-2.125-2.367-.653-2.083 5.869-4.511 11.536-6.843 17.244-.572-2.1-2.185-4.137-3.3-5.885a.677.677 0 00-1.169.683 94.88 94.88 0 011.517 3.067 21.033 21.033 0 001.6 3.507.931.931 0 00.656.356 152.8 152.8 0 00-5.425 15.292c-1.527 5.357-2.859 10.765-4.154 16.184-.315-.7-.634-1.4-.933-2.1-1.521-3.578-3.132-7.117-4.73-10.659-.51-1.132-2.469-.31-2.011.848a749.8 749.8 0 013.709 9.5c.932 2.443 1.6 5.171 2.736 7.587-1.175 4.961-2.356 9.921-3.66 14.847-3.213 12.137-6.227 24.284-8.872 36.56-2.514 11.667-5.791 23.768-6.094 35.745-.072 2.853 3.859 3.1 4.737.64 3.944-11.057 5.153-23.236 7.333-34.738 2.338-12.341 5.016-24.6 7.906-36.826 2.391-10.115 4.224-20.351 6.453-30.5a121.312 121.312 0 0115.979-10.443c1.037-.57.123-2.095-.919-1.58z" fill="#b0bf69"/><path data-name="Path 749" d="M187.137 194.591c-.337-6.4-.6-13.153 2.355-18.839l7.187 8.353a30.474 30.474 0 0117.891-24.495c.694 8.78-1.413 17.514-3.5 26.07a29.139 29.139 0 0111.2-4.183c-4.166 9.722-9.694 19.79-19.255 24.313-3.925 1.857-9.016 2.474-12.295-.373-2.961-2.569-3.377-6.933-3.583-10.846z" fill="#d0e07a"/><path data-name="Path 750" d="M192.584 196.787c-.2-3.73-.352-7.667 1.372-10.981l4.19 4.869a17.76 17.76 0 0110.428-14.278c.4 5.118-.824 10.209-2.043 15.2a16.987 16.987 0 016.529-2.439c-2.429 5.668-5.65 11.535-11.224 14.172-2.288 1.082-5.255 1.441-7.165-.218-1.723-1.5-1.965-4.044-2.087-6.325z" fill="#b0bf69"/><path data-name="Path 751" d="M12.85 198.965c-3.179-5.564-6.452-11.477-6.368-17.885l10.175 4.229a30.473 30.473 0 014.964-29.925c4.569 7.532 6.615 16.279 8.595 24.862a29.156 29.156 0 018.123-8.774c.652 10.557.242 22.035-6.263 30.376-2.671 3.424-6.939 6.264-11.148 5.194-3.8-.964-6.134-4.674-8.078-8.077z" fill="#d0e07a"/><path data-name="Path 752" d="M17.943 199.029c-1.966-3.44-3.99-7.1-3.938-11.058l6.292 2.614a18.84 18.84 0 013.069-18.5c2.825 4.657 4.09 10.065 5.314 15.372a18.031 18.031 0 015.021-5.425c.4 6.527.15 13.625-3.872 18.781-1.651 2.117-4.291 3.873-6.893 3.212-2.353-.598-3.791-2.892-4.993-4.996z" fill="#b0bf69"/><path data-name="Path 753" d="M181.098 227.753c11.787-.736 24.087-1.407 34.337-7.273 3.617-2.071 7.141-5.2 7.564-9.349.4-3.923-2.211-7.665-5.562-9.744s-7.338-2.817-11.228-3.457c-44.384-7.317-89.666-7.141-134.6-5.071-21.523.991-43.353 2.478-63.666 9.661-1.837.648-3.794 1.454-4.792 3.127-1.384 2.32-.281 5.476 1.752 7.255s4.75 2.514 7.364 3.2l13.858 3.619c3.113.813 6.518 1.832 8.237 4.55 1.15 1.818 1.344 4.137 2.6 5.886 1.99 2.775 5.869 3.222 9.278 3.423l103.524 6.1c7.5.442 16.26.349 20.886-5.571 1.148-1.468 1.961-3.229 3.4-4.406 1.923-1.567 4.573-1.796 7.048-1.95z" fill="#dfe895"/><path data-name="Path 754" d="M145.778 209.378a2.838 2.838 0 00.254 3.372 7.068 7.068 0 003.02 1.96c8.221 3.319 17.4 2.994 26.253 2.617 5.017-.214 10.181-.462 14.738-2.568a7.539 7.539 0 003.079-2.287 3.454 3.454 0 00.359-3.652c-3.659-3-8.722-3.671-13.444-3.352s-9.357 1.5-14.083 1.721c-6.18.286-12.613-1.048-18.422 1.085a3.759 3.759 0 00-1.754 1.104z" fill="#bcd97c"/><g data-name="Group 2218"><path data-name="Path 755" d="M138.743 120.372s3.424-6.42 6.419-9.629 47.29-2.14 50.072-.641 4.494 14.551 4.494 14.551z" fill="#5bac46"/><path data-name="Path 756" d="M138.957 125.936s10.033 81.157 11.74 84.371 35.323 3.459 37.677.249 10.493-81.62 10.493-81.62z" fill="#5bac46"/><path data-name="Path 757" d="M139.474 117.983c-2.756 0-3.244 8.983-.5 10.23s56.638 1.248 59.634 1.5 3.492-9.483.748-10.48-53.146-1.25-59.882-1.25z" fill="#265f20"/><g data-name="Group 2217" fill="#fff"><path data-name="Path 758" d="M167.983 161.76h-12.249a19.276 19.276 0 003.556 5.332c1.876 1.679 8.69.889 8.69.889z"/><path data-name="Path 759" d="M164.429 157.316l-2.963-5.925-5.728 2.963 1.853.632-1.857 5.293h5.629l1.173-3.606z"/><path data-name="Path 760" d="M165.774 151.055l7.381-9.769a19.289 19.289 0 00-6.4-.379c-2.471.484-5.948 6.4-5.948 6.4z"/><path data-name="Path 761" d="M171.462 150.897l6.513 1.208 1.09-6.355-1.621 1.1-3.106-4.67-3.393 4.491 2.169 3.11z"/><path data-name="Path 762" d="M177.46 155.268l3.852 11.623a19.31 19.31 0 003.944-5.052c1-2.309-1.89-8.528-1.89-8.528z"/><path data-name="Path 763" d="M174.359 160.04l-4.692 4.675 4.614 4.505.016-1.957 5.608.093-1.77-5.342-3.792.019z"/></g></g><path data-name="Path 764" d="M26.387 211.862c.724 1.963 2.9 2.909 4.884 3.585 21.1 7.2 44.223 7.495 65.989 2.687 3.863-.853 8.1-2.167 10.033-5.619a4.2 4.2 0 00.608-2.652c-.394-2.482-3.5-3.3-6.006-3.557q-23.843-2.466-47.814-3.378c-7.194-.274-14.526-.426-21.445 1.56a11.246 11.246 0 00-4.817 2.43 4.825 4.825 0 00-1.432 4.944z" fill="#bcd97c"/><path data-name="Path 765" d="M113.487 216.619a24.677 24.677 0 013.8-.937 22.738 22.738 0 016.341.656 75.463 75.463 0 0012.663.717 16.851 16.851 0 006.306-.8 5.727 5.727 0 003.816-4.7c-.962-3.833-4.959-6.083-8.779-7.1a29.345 29.345 0 00-10.245-.846c-4.673.441-9.2 2-13.89 2.259-2.673.145-5.367-.137-8.023.2s-5.391 1.417-6.884 3.64-1.188 5.728 1.126 7.074a7.015 7.015 0 002.829.758 29.462 29.462 0 0010.94-.921z" fill="#bcd97c"/><g data-name="Group 2221" transform="translate(28.911 88.033)"><path data-name="Path 766" d="M33.033 25.428s-9.257-14.014-6.416-19.29a4.811 4.811 0 017.028-1.891c1.833 1.135 5.194-3.4 8.86-4.16s5.8 3.4 7.638 4.539 3.972-.379 5.195 3.4-6.417 9.834-9.472 17.4z" fill="#5bac46"/><path data-name="Path 767" d="M33.645 28.794s-2.444-2.444-.917-4.888 11.61-3.361 13.749 0-1.529 7.027-1.529 7.027z" fill="#265f20"/><path data-name="Path 768" d="M34.561 26.045C20.601 27.313 2.48 54.153.953 72.792s-2.14 41.552 5.5 50.413 55.301 10.692 68.743-1.528 4.889-49.8-3.056-66.3-17.413-31.166-37.579-29.332z" fill="#5bac46"/><circle data-name="Ellipse 76" cx="17.88" cy="17.88" r="17.88" transform="translate(23.237 60.862)" fill="#fff"/><g data-name="Group 2220"><g data-name="Group 2219" fill="#265f20"><path data-name="Path 769" d="M38.54 84.044H26.295a19.288 19.288 0 003.556 5.332c1.876 1.679 8.69.889 8.69.889z"/><path data-name="Path 770" d="M34.985 79.599l-2.962-5.925-5.728 2.962 1.853.632-1.853 5.294h5.629l1.173-3.606z"/><path data-name="Path 771" d="M36.331 73.34l7.381-9.768a19.307 19.307 0 00-6.4-.379c-2.47.485-5.947 6.4-5.947 6.4z"/><path data-name="Path 772" d="M42.019 73.181l6.514 1.208 1.089-6.355-1.621 1.1-3.106-4.669-3.393 4.491 2.169 3.11z"/><path data-name="Path 773" d="M48.012 77.551l3.852 11.623a19.307 19.307 0 003.944-5.052c1-2.309-1.89-8.529-1.89-8.529z"/><path data-name="Path 774" d="M44.916 82.325L40.224 87l4.613 4.506.017-1.958 5.608.094-1.77-5.343-3.792.019z"/></g></g><path data-name="Path 775" d="M31.51 18.853a.285.285 0 00-.518.217 6.826 6.826 0 001.262 2.458.328.328 0 00.544-.317 10.4 10.4 0 00-1.288-2.358z" fill="#88c55b"/><path data-name="Path 776" d="M35.92 20.567c-1.12-2.275-2.479-4.325-2.314-6.988.025-.4-.578-.389-.618 0a10.332 10.332 0 002.348 7.44c.302.324.763-.087.584-.452z" fill="#88c55b"/><path data-name="Path 777" d="M36.982 19.13c.042-.336-.527-.41-.59-.079a1.055 1.055 0 00.245 1.071.256.256 0 00.425-.247 2.151 2.151 0 01-.08-.745z" fill="#88c55b"/><path data-name="Path 778" d="M38.497 18.635c-.023-.421-.027-.843-.051-1.264a.275.275 0 00-.55 0c-.054.756-.3 1.774.169 2.443a.282.282 0 00.521-.141c.01-.347-.068-.692-.089-1.038z" fill="#88c55b"/><path data-name="Path 779" d="M42.343 12.088a.245.245 0 00-.491 0c-.02 1.228.036 2.456.019 3.683a13.559 13.559 0 01-.921 4.349.348.348 0 00.579.337c1.849-2.057.907-5.887.814-8.369z" fill="#88c55b"/><path data-name="Path 780" d="M44.945 18.454c-.04-.344-.57-.361-.55 0a8.463 8.463 0 01-.376 1.828c-.034.221.242.464.425.247a2.78 2.78 0 00.501-2.075z" fill="#88c55b"/><path data-name="Path 781" d="M47.344 18.91a13.176 13.176 0 01-1.164 1.968c-.163.258.151.533.4.4a3.494 3.494 0 001.377-2.2c.121-.402-.461-.533-.613-.168z" fill="#88c55b"/><path data-name="Path 782" d="M33.031 26.761a20.192 20.192 0 00-3.044 2.233 6.7 6.7 0 00-2.26 2.648c-.1.317.288.46.5.292.852-.667 1.516-1.64 2.31-2.388.9-.84 1.918-1.534 2.8-2.381a.259.259 0 00-.306-.404z" fill="#88c55b"/><path data-name="Path 783" d="M33.717 28.536a2.819 2.819 0 00-1.338 1.36c-.08.253.24.4.418.244a12.056 12.056 0 011.163-1.187.241.241 0 00-.243-.417z" fill="#88c55b"/><path data-name="Path 784" d="M35.976 28.462a1.383 1.383 0 00-.6.9c-.04.2.229.425.388.226a3.943 3.943 0 01.607-.61c.287-.236-.102-.736-.395-.516z" fill="#88c55b"/><path data-name="Path 785" d="M39.712 27.843c-.055-.375-.678-.283-.657.088.114 1.994-.261 4.1.083 6.065a.4.4 0 00.775 0 19.758 19.758 0 00-.201-6.153z" fill="#88c55b"/><path data-name="Path 786" d="M42.746 28.332a.28.28 0 00-.483.283 6.176 6.176 0 01.525 1.47 2.824 2.824 0 00.46 1.165c.171.215.474.017.491-.2a4.947 4.947 0 00-.993-2.718z" fill="#88c55b"/><path data-name="Path 787" d="M48.004 28.872a5.134 5.134 0 00-2.014-1.037.381.381 0 00-.2.734 4.945 4.945 0 011.68 1.1 12.82 12.82 0 001.336 1.443c.3.208.647-.133.579-.444a3.8 3.8 0 00-1.381-1.796z" fill="#88c55b"/><path data-name="Path 788" d="M9.289 123.12a29.21 29.21 0 01-2.306-4.2c-.157-.306-.586-.037-.452.265.641 1.456 1.039 3.219 2.339 4.253.218.177.615-.053.419-.318z" fill="#88c55b"/><path data-name="Path 789" d="M13.668 125.01c-2.461-3.125-5.106-6.356-5.2-10.556a.224.224 0 00-.448 0c-.11 3.736 2 9.017 5.173 11.168.4.269.726-.295.475-.612z" fill="#88c55b"/><path data-name="Path 790" d="M14.611 124.315a.314.314 0 00-.541.317 4.7 4.7 0 00.75 1.122.281.281 0 00.467-.272 4.642 4.642 0 00-.676-1.167z" fill="#88c55b"/><path data-name="Path 791" d="M18.45 124.024c-.336-.24-.753.3-.44.571a11.972 11.972 0 001.045.964.319.319 0 00.466-.358 2.6 2.6 0 00-1.071-1.177z" fill="#88c55b"/><path data-name="Path 792" d="M26.162 114.589a.313.313 0 00-.626 0 46.923 46.923 0 01-1.433 11.4c-.11.433.544.744.743.313 1.649-3.573 1.404-7.873 1.316-11.713z" fill="#88c55b"/><path data-name="Path 793" d="M29.306 122.306a.343.343 0 00-.686 0 26.342 26.342 0 01-.382 3.7.33.33 0 00.637.176 9.061 9.061 0 00.431-3.876z" fill="#88c55b"/><path data-name="Path 794" d="M35.412 124.88a.355.355 0 00-.71 0 6.891 6.891 0 01-.325 1.82.285.285 0 00.474.275 2.767 2.767 0 00.561-2.095z" fill="#88c55b"/><path data-name="Path 795" d="M72.512 110.437c-.687 4.237-2.053 8.259-2.893 12.445-.081.4.512.715.7.3 1.782-3.894 2.325-8.436 2.845-12.651.05-.377-.593-.464-.652-.094z" fill="#88c55b"/><path data-name="Path 796" d="M73.756 118.787a9.1 9.1 0 01-.675 2.086c-.1.277.321.536.51.3a3.97 3.97 0 00.758-2.382c.011-.394-.55-.372-.593-.004z" fill="#88c55b"/><path data-name="Path 797" d="M67.982 117.297c-.027-.372-.6-.379-.585 0 .071 1.911-1.187 3.282-1.5 5.074-.052.289.335.49.5.208a9.93 9.93 0 001.585-5.282z" fill="#88c55b"/><path data-name="Path 798" d="M62.793 122.091c-.354.831-.843 1.6-1.162 2.44-.125.329.356.479.533.225a12.812 12.812 0 001.248-2.4c.146-.357-.469-.616-.619-.265z" fill="#88c55b"/></g><g data-name="Group 2227"><path data-name="Path 799" d="M99.049 39.388c-.249 18.3-22.04 58.717 15.885 57.054s17.3-42.25 19.3-58.385l-7.984-8.649h-13.974l-9.481 4.325z" fill="#9b5023"/><path data-name="Path 800" d="M112.11 53.36s-.083 2.911-4.325 5.49-1.165 11.395-1.165 11.395 14.222 3.825 14.472 3.91 5.988-4.908 5.988-4.908L123.504 59.1s-3.327-.332-4.158-6.237z" fill="#fab37c"/><path data-name="Path 801" d="M130.74 207.682c-1.38.2-2.121 2.869-.874 4.866s9.192 1.5 11.687.5-2.328-6.613-10.813-5.366z" fill="#619ba6"/><path data-name="Path 802" d="M128.371 193.713s1.371 13.723 2.121 15.22a1.762 1.762 0 003.243.125c.749-1.372.125-16.218.125-16.218z" fill="#fcc98f"/><path data-name="Path 803" d="M112.574 207.682c1.381.2 2.121 2.869.874 4.866s-9.344 1.227-11.838.229 2.482-6.342 10.964-5.095z" fill="#619ba6"/><path data-name="Path 804" d="M114.945 193.713s-1.372 13.723-2.121 15.22a1.762 1.762 0 01-3.244.125c-.748-1.372-.125-16.218-.125-16.218z" fill="#fcc98f"/><path data-name="Path 805" d="M103.294 114.494s5.115 79.094 5.489 81.464 5.614 1.373 6.613.375.5-64.872 1.5-66.618 3.118-.749 3.743.748 6.362 61.878 7.111 63.874 5.239 1.871 6.487-.125-1.248-78.1-2-80.342-13.723-2.5-13.723-2.5z" fill="#0d415d"/><path data-name="Path 806" d="M86.827 117.568s1.663 1.663-2.662 3.992-3.326 3.66-1 4.491 4.657-.333 6.154-1.829c0 0-.166 2.828 1 2.828s1.663-5.157 1.5-8.649-4.992-.833-4.992-.833z" fill="#fcc98f"/><path data-name="Path 807" d="M116.069 21.174c-17.6 0-15.054 34.931 0 34.931s20.844-34.931 0-34.931z" fill="#fcc98f"/><path data-name="Path 808" d="M123.504 59.099s-.144 8.3-8.129 8.3-7.591-8.551-7.591-8.551a21.908 21.908 0 00-6.853 5.121c-3.493 3.741-12.359 22.574-13.606 27.564s-1.248 23.454-1 26.947c0 0 5.241 1.247 6.487.5 0 0 1.157-20.117 3.154-25.855s7.949-16.937 7.949-16.937.87 12.515 1.618 16.756-3.739 15.8-3.988 22.292c0 0 14.97 7.985 33.683-.5 0 0-6.9-19.4-6.4-23.148s1.415-13.779 1.415-13.779 5.988 7.111 7.111 10.23-1.747 17.715-2 18.339 2.246 4.741 2.994 5.114 7.36-18.214 6.986-24.327-13.848-25.2-15.47-26.323-6.36-1.743-6.36-1.743z" fill="#1d5b79"/><path data-name="Path 809" d="M122.34 30.245s-13.64 10.4-23.287 9.148c0 0-1.747-16.634 10.146-22.457s16.218 3.493 16.218 3.493 12.143 2 8.816 17.633c0-.004-9.814-1.917-11.893-7.817z" fill="#9b5023"/><path data-name="Path 810" d="M136.19 106.132s-6.435 3.948-4.679 6.874 5.849 1.023 7.019-3.218z" fill="#fcc98f"/><path data-name="Path 811" d="M121.904 27.064c-2.775 1.521-5.389 3.29-8.247 4.661-3.421 1.64-7.091 1.875-10.626 3.056a.6.6 0 00.159 1.172c7.156-.085 13.75-3.962 19.078-8.418.27-.227-.074-.63-.364-.471z" fill="#b55e2d"/><path data-name="Path 812" d="M120.814 25.247c-4.129 2.711-8.737 3.164-13.237 4.867-.462.175-.443 1 .126.931 4.721-.536 9.891-2.094 13.491-5.307a.314.314 0 00-.38-.491z" fill="#b55e2d"/><path data-name="Path 813" d="M131.212 33.713a27.287 27.287 0 01-4.5-1.625c-1.548-.9-2.126-2.449-2.8-4-.123-.286-.579-.08-.494.209.556 1.876 1.079 3.36 2.657 4.618a8.417 8.417 0 005.006 1.755.489.489 0 00.131-.957z" fill="#b55e2d"/><path data-name="Path 814" d="M130.546 31.128c-2.448-.9-4.31-1.865-5.672-4.194-.129-.222-.525-.071-.425.179 1.021 2.549 3.143 4.615 6 4.721.431.016.458-.573.097-.706z" fill="#b55e2d"/><path data-name="Path 815" d="M112.097 40.247c-.176-.771-1.567-.748-1.76 0a3.123 3.123 0 00.225 1.907c.326.726 1.487.563 1.552-.107a3.357 3.357 0 00-.017-1.8z" fill="#9b5023"/><path data-name="Path 816" d="M121.481 40.247c.176-.771 1.567-.748 1.76 0a3.129 3.129 0 01-.225 1.907c-.327.726-1.487.563-1.552-.107a3.349 3.349 0 01.017-1.8z" fill="#9b5023"/><path data-name="Path 817" d="M116.837 45.653a1.533 1.533 0 01-1.443-.1.216.216 0 00-.261.338c.513.491 1.549.974 2.014.167a.277.277 0 00-.31-.405z" fill="#fab37c"/><path data-name="Path 818" d="M124.944 42.724a2.2 2.2 0 102.2 2.2 2.221 2.221 0 00-2.2-2.2z" fill="#f69a7f"/><path data-name="Path 819" d="M107.883 42.724a2.2 2.2 0 102.2 2.2 2.221 2.221 0 00-2.2-2.2z" fill="#f69a7f"/><path data-name="Path 820" d="M114.406 48.31c.512-.426 3.971-.413 4.467.052s-.124 2.535-2.234 2.742-2.73-2.38-2.233-2.794z" fill="#f27363"/><path data-name="Path 821" d="M118.736 49.826c-2.244-1.17-3.517-.387-4.1.256a2.034 2.034 0 002.008 1.022 2.666 2.666 0 002.092-1.278z" fill="#f69a7f"/><path data-name="Path 822" d="M111.494 39.97a.373.373 0 000 .745.373.373 0 000-.745z" fill="#fff"/><path data-name="Path 823" d="M122.732 39.97a.373.373 0 000 .745.373.373 0 000-.745z" fill="#fff"/><g data-name="Group 2222" fill="#6aa9b5"><path data-name="Path 824" d="M115.67 194.035a15.862 15.862 0 01-6.994.751c.052.625.091 1.033.112 1.169.375 2.371 5.614 1.374 6.612.375a8.368 8.368 0 00.27-2.295z"/><path data-name="Path 825" d="M128.919 192.672c-.5-.066-1-.162-1.5-.266a15.684 15.684 0 00.324 1.928c.748 2 5.239 1.871 6.487-.125a6.994 6.994 0 00.235-1.926 14.159 14.159 0 01-5.546.389z"/></g><path data-name="Path 826" d="M105.543 210.058a8.551 8.551 0 01-.711-.84c-.187-.276-.185-.626-.44-.852a.3.3 0 00-.425 0c-.629.808.385 2.12 1.19 2.356a.4.4 0 00.386-.664z" fill="#73b8c4"/><path data-name="Path 827" d="M108.634 209.95a3.659 3.659 0 01-.686-1.084c-.158-.427-.2-.889-.363-1.314a.3.3 0 00-.59.079c-.035 1.056.183 2.353 1.2 2.883a.361.361 0 00.439-.564z" fill="#73b8c4"/><path data-name="Path 828" d="M136.418 207.296a.327.327 0 00-.556 0 5.52 5.52 0 00-.4 1.176c-.2.539-.559 1-.786 1.519-.16.368.186.837.59.59a2.753 2.753 0 001.038-1.555c.164-.456.436-1.299.114-1.73z" fill="#73b8c4"/><path data-name="Path 829" d="M139.12 208.233c-.062-.256-.509-.285-.548 0a4.682 4.682 0 01-.29 1.24c-.172.406-.429.766-.6 1.175-.122.3.286.583.535.412a2.73 2.73 0 00.903-2.827z" fill="#73b8c4"/><path data-name="Path 830" d="M109.055 119.276a.281.281 0 00-.539 0c-.34 1.808-1.634 2.887-2.979 4-.3.247.021.748.371.637 1.568-.495 3.501-2.922 3.147-4.637z" fill="#6aa9b5"/><path data-name="Path 831" d="M131.375 122.737a16.538 16.538 0 01-2.735-1 4.351 4.351 0 01-2.04-2.372.246.246 0 00-.448.058c-.376 2.514 3.116 4.028 5.11 4.14.489.024.55-.689.113-.826z" fill="#6aa9b5"/><path data-name="Path 832" d="M111.296 36.968a1.922 1.922 0 00-1.635.883c-.094.168.065.437.272.355a3.425 3.425 0 011.106-.355 1.165 1.165 0 01.633.137c.206.113.3.271.543.317a.35.35 0 00.434-.331c.044-.682-.806-.963-1.353-1.006z" fill="#9b5023"/><path data-name="Path 833" d="M122.019 36.968a1.92 1.92 0 011.634.883c.094.168-.064.437-.271.355a3.426 3.426 0 00-1.106-.355 1.165 1.165 0 00-.633.137c-.206.113-.3.271-.544.317a.349.349 0 01-.433-.331c-.045-.682.804-.963 1.353-1.006z" fill="#9b5023"/><g data-name="Group 2224"><g data-name="Group 2223" fill="#1d5b79"><path data-name="Path 834" d="M129.632 84.197c.083-.84.162-1.652.234-2.408a64.846 64.846 0 01-12.936 1.049 85.621 85.621 0 01-12.575-.94c.052.632.108 1.288.166 1.956a82.366 82.366 0 009.865 1.06 63.713 63.713 0 0015.246-.717z"/><path data-name="Path 835" d="M132.266 105.914a47.384 47.384 0 01-15.175 2.529c-4.771.031-9.547-.325-14.318-.549q-.288 1.225-.529 2.4c2.51.116 4.975.19 7.283.368 6.375.494 12.752.713 19.076-.379a28.044 28.044 0 004.669-1.274c-.321-.972-.662-2.015-1.006-3.095z"/><path data-name="Path 836" d="M97.809 68.632c-.243.421-.489.856-.74 1.31 10.918 9.609 28.971 10.037 42.519 4.635q-.611-1.006-1.24-2c-13.368 4.477-29.534 5.429-40.539-3.945z"/><path data-name="Path 837" d="M128.826 91.592l.034-.271a59.709 59.709 0 01-13.256 1.179 74.136 74.136 0 01-10.278-.928c.07.517.141.982.21 1.375a6.85 6.85 0 01.072 1.216 65.66 65.66 0 0023.506.371 10.645 10.645 0 01-.288-2.942z"/><path data-name="Path 838" d="M132.929 81.173c.479.624.977 1.29 1.467 1.969a76.353 76.353 0 008.7-2.29 60.56 60.56 0 00-1.255-2.392 64.352 64.352 0 01-8.912 2.713z"/><path data-name="Path 839" d="M116.266 103.337a120.53 120.53 0 0014.866-1.083c-.29-.967-.57-1.929-.829-2.86-4.06.7-8.2 1.056-12.283 1.365a95.929 95.929 0 01-13.533.157q-.229.958-.476 1.95a94.068 94.068 0 0012.255.471z"/></g></g><path data-name="Path 840" d="M126.208 59.581c-1.443-.314-2.7-.482-2.7-.482s.307 6.587-7.678 6.587-8.041-6.836-8.041-6.836-.937.482-2.276 1.3c.1 4.172 1.775 9.852 11.04 8.788 8.829-1.018 9.597-5.289 9.655-9.357z" fill="#1d5b79"/><path data-name="Path 841" d="M92.815 118.982s.056-.981.166-2.569a24.557 24.557 0 01-6.752-.821c.012.631.025 1.194.042 1.674v.09c.007.189.013.36.021.52 0 .045 0 .094.006.136.009.176.017.337.027.47 0 0 1.31.313 2.776.531.367.055.743.1 1.111.14a5.163 5.163 0 002.603-.171z" fill="#a2ddf8"/><path data-name="Path 842" d="M133.086 115.815a14.71 14.71 0 01-1.304-1.946c-13.059 3.707-25.72 1.59-29.982.662a9.36 9.36 0 00-.293 2.28 45.78 45.78 0 0031.58-.996z" fill="#0d415d"/><path data-name="Path 843" d="M138.91 106.926a7.52 7.52 0 00-3.416-1.085 5.58 5.58 0 01-.137.541c-.249.623 2.246 4.741 2.994 5.114.215.108.917-1.36 1.8-3.646a5.919 5.919 0 00-1.241-.924z" fill="#a2ddf8"/><g data-name="Group 2225" fill="#1d5b79"><path data-name="Path 844" d="M137.606 89.988a16.88 16.88 0 007.726-1.646 10.583 10.583 0 000-1.173 7.191 7.191 0 00-.211-1.262c-2.559 1.046-4.874 2.483-7.661 2.556a8.828 8.828 0 01.146 1.525z"/><path data-name="Path 845" d="M143.716 96.816c.2-.736.383-1.465.553-2.179-2.277.274-4.783.425-6.889-.5a67.616 67.616 0 01-.182 1.606 9.6 9.6 0 006.518 1.073z"/><path data-name="Path 846" d="M142.399 101.339a17.558 17.558 0 01-5.761-1.679q-.133.827-.267 1.6a11.994 11.994 0 005.24 2.512c.263-.787.528-1.603.788-2.433z"/></g><g data-name="Group 2226" fill="#1d5b79"><path data-name="Path 847" d="M92.439 99.128a15.909 15.909 0 01-5.878-1.039c-.04.642-.076 1.306-.109 1.986a19.673 19.673 0 007.873 1.807c.12-.95.246-1.874.378-2.758-.756.007-1.515.023-2.264.004z"/><path data-name="Path 848" d="M93.377 111.219c.059-.7.122-1.433.19-2.178-2.474.3-4.918 1.051-7.358.322 0 .506-.007 1-.009 1.49a12.031 12.031 0 007.177.366z"/><path data-name="Path 849" d="M101.381 80.535c-2.365-1.371-6.117-1.746-7.555-4.354-.27.548-.536 1.1-.8 1.65a9.82 9.82 0 007.824 4.359c.254-.513.5-1.01.741-1.482a.943.943 0 00-.21-.173z"/><path data-name="Path 850" d="M89.327 86.035a86.698 86.698 0 00-1.024 2.566 15.685 15.685 0 007.819 4.1c.32-.879.719-1.864 1.167-2.906-2.856-.814-5.972-1.756-7.962-3.76z"/></g><path data-name="Path 851" d="M120.354 69.288c-6.759 1.572-15.113-.021-17.406-7.254q-.3.261-.614.547c1.317 6.883 8.276 9.647 14.933 9.119 4.807-.381 12.146-3.04 15.238-7.68a49.918 49.918 0 00-1.752-2.244 16.944 16.944 0 01-10.399 7.512z" fill="#1d5b79"/></g><path data-name="Path 852" d="M18.842 109.793c-.548-1.786-3.164-2.614-4.86-2.231a3.311 3.311 0 00-2.593 3.269c-3.1.09-4.4 3.738-2.627 6.59a.743.743 0 001.353-.57c-.587-1.906-.641-4.8 2.18-3.825a1.042 1.042 0 001.311-1c-.016-1.139-.167-2.281 1.278-2.287 1.092 0 1.923.9 2.969 1.043.568.077 1.189-.34.989-.989z" fill="#96c5dc"/><path data-name="Path 853" d="M28.656 112.765c-2.033-2.69-5.415-1.3-6.564 1.273a2.4 2.4 0 00-2.511.526c-1.092 1.227-.937 2.793-.461 4.267.2.6 1.247.534 1.164-.159-.179-1.5.036-3.637 1.965-2.347a1.079 1.079 0 001.474-.386c.4-.724.656-1.659 1.5-1.985.713-.275 1.838.206 2.589.275a.979.979 0 00.844-1.464z" fill="#96c5dc"/><path data-name="Path 854" d="M179.351 41.192a6.1 6.1 0 00-5.141 0 18.607 18.607 0 01-.87-2.23.946.946 0 00-1.138-.646 6.516 6.516 0 00-4.568 2.643c-.3.424.3 1.036.724.724a7.859 7.859 0 013.4-1.451 9.127 9.127 0 01.71 2.575 1.121 1.121 0 001.666.956 6.424 6.424 0 013.091-.674c1.67.041 1.493 1.182 1.414 2.469a.831.831 0 001.408.583 2.993 2.993 0 00-.696-4.949z" fill="#96c5dc"/><path data-name="Path 855" d="M86.828 60.094c-1.647.16-2.953 1.5-3.991 2.808-3.151-1.857-5.679 1.9-5.371 5.4a.722.722 0 001.413.19c.417-1.564 1.091-5.452 3.395-3.314a1.116 1.116 0 001.717-.221 11.264 11.264 0 012.191-2.35c1.357-1.039 2.1.335 2.884 1.313a.7.7 0 001.191-.494c-.207-1.866-1.351-3.535-3.429-3.332z" fill="#96c5dc"/><path data-name="Path 856" d="M208.634 149.723a.722.722 0 001.129.871c1.343-1.278 3.584-.6 5.019.173a2.628 2.628 0 011.329 1.393c.3.781.747 1.256 1.626 1.1a1.223 1.223 0 00.889-.89c.631-4.488-8.009-6.5-9.992-2.647z" fill="#96c5dc"/><path data-name="Path 857" d="M197.309 204.946a2.467 2.467 0 00-.762-.954c-.371-.371-.7-.786-1.094-1.133-.214-.19-.64-.013-.522.3a4.594 4.594 0 00.721 1.2c.307.4.645.956 1.165 1.071a.405.405 0 00.492-.484z" fill="#b0bf69"/><path data-name="Path 858" d="M198.397 203.04a25.29 25.29 0 00-.5-2.891c-.134-.54-.9-.3-.815.225.156.961.216 1.94.288 2.911a5.062 5.062 0 00.325 1.976.418.418 0 00.757-.1 4.74 4.74 0 00-.055-2.121z" fill="#b0bf69"/><path data-name="Path 859" d="M200.295 202.908a5.552 5.552 0 00-.875 2.426.324.324 0 00.6.162c.386-.689.523-1.525.861-2.246.182-.389-.378-.732-.586-.342z" fill="#b0bf69"/><path data-name="Path 860" d="M202.783 203.585c-.444.4-.917.769-1.347 1.19a.394.394 0 00.475.615 7.985 7.985 0 001.551-1.127c.468-.403-.219-1.097-.679-.678z" fill="#b0bf69"/><path data-name="Path 861" d="M170.457 224.394c-.867-.887-1.92-1.608-2.859-2.418a.378.378 0 00-.535.535 20.875 20.875 0 002.794 2.661c.471.333.982-.387.6-.778z" fill="#b0bf69"/><path data-name="Path 862" d="M172.249 221.681a.41.41 0 00-.819 0 16.852 16.852 0 01-.528 2.715c-.06.34.375.706.648.377a4.219 4.219 0 00.699-3.092z" fill="#b0bf69"/><path data-name="Path 863" d="M172.753 223.234a4.3 4.3 0 01-.9 1.555.389.389 0 00.47.608 3.121 3.121 0 001.429-1.889c.189-.636-.805-.904-.999-.274z" fill="#b0bf69"/><path data-name="Path 864" d="M127.23 224.646a.502.502 0 00-.968.267 14.358 14.358 0 01.384 3.235c.011.539-.028 1.1-.02 1.659a5.339 5.339 0 00-1.684-1.652c-.329-.214-.659.256-.406.525.6.638 1.012 1.426 1.623 2.041a.442.442 0 00.567.025 3.415 3.415 0 00.077.372.528.528 0 001.011 0c.593-1.877.017-4.645-.584-6.472z" fill="#b0bf69"/><path data-name="Path 865" d="M129.02 228.013c-.33.948-1.087 1.945-1.094 2.967a.515.515 0 00.872.361 7.14 7.14 0 001.31-3.029.564.564 0 00-1.088-.299z" fill="#b0bf69"/><path data-name="Path 866" d="M132.144 229.331a13.041 13.041 0 00-1.7 1.4.355.355 0 00.343.589 3.622 3.622 0 001.89-1.578c.223-.349-.253-.635-.533-.411z" fill="#b0bf69"/><path data-name="Path 867" d="M85.594 227.604c-.467-.456-.427-1.675-.451-2.262-.039-.939.021-1.877-.007-2.816a.384.384 0 00-.767 0c-.042.92-.543 3.12-.2 4.523a3.762 3.762 0 01-.428-.483 2.337 2.337 0 01-.36-1.221.322.322 0 00-.643 0c-.029.9.349 2.327 1.358 2.583a.333.333 0 00.377-.176 1.218 1.218 0 00.737.509.4.4 0 00.384-.657z" fill="#b0bf69"/><path data-name="Path 868" d="M87.134 225.647c-.211.489-.445.965-.7 1.434a1.7 1.7 0 00-.369 1.179.391.391 0 00.476.271c.436-.1.629-.548.813-.912.26-.515.49-1.045.7-1.581s-.694-.911-.92-.391z" fill="#b0bf69"/><path data-name="Path 869" d="M89.781 225.998a20.356 20.356 0 01-1.317 1.648c-.22.27.069.748.4.519a5.674 5.674 0 001.57-1.786c.256-.419-.39-.785-.653-.381z" fill="#b0bf69"/><path data-name="Path 870" d="M18.811 203.756a.337.337 0 00-.613.258 8.179 8.179 0 01.368 2.574 12.848 12.848 0 01-.382 2.044 10.158 10.158 0 00-1.367-1.177 22.905 22.905 0 00-2.065-1.575c-.33-.213-.725.289-.422.547.629.538 1.221 1.125 1.818 1.7.488.467 1.01 1.132 1.7 1.279a.443.443 0 00.276-.044.422.422 0 00.763.136c1.095-1.505.826-4.219-.076-5.742z" fill="#b0bf69"/><path data-name="Path 871" d="M20.89 207.89a3.645 3.645 0 00-.823 1.67c-.034.408.472.513.729.3a6.412 6.412 0 00.992-1.448c.375-.558-.52-1.067-.898-.522z" fill="#b0bf69"/><path data-name="Path 872" d="M120.24 198.029a.367.367 0 00-.574.443 5.007 5.007 0 00.9 1.486.373.373 0 00.631-.261 2.8 2.8 0 00-.957-1.668z" fill="#b0bf69"/><path data-name="Path 873" d="M122.959 196.475c-.15-.585-.971-.325-.883.243a4.3 4.3 0 01-.077 1.7 6.394 6.394 0 00-.45 1.562.41.41 0 00.61.349c1.224-.621 1.085-2.756.8-3.854z" fill="#b0bf69"/><path data-name="Path 874" d="M125.319 196.421c-.3.556-.628 1.1-.958 1.641a4.09 4.09 0 00-.767 1.635c-.041.327.377.391.571.237a3.953 3.953 0 00.933-1.441c.287-.568.564-1.14.821-1.721.178-.4-.38-.753-.6-.351z" fill="#b0bf69"/><path data-name="Path 875" d="M143.581 199.336c-.367.464-.812.856-1.189 1.308a5.136 5.136 0 00-.53-.675l-1.015-1.122c-.357-.393-.9.176-.574.573l.822 1.01a3.3 3.3 0 00.976.984.368.368 0 00.24.025.354.354 0 00.333.07 3.923 3.923 0 001.74-1.555c.335-.469-.448-1.069-.803-.618z" fill="#b0bf69"/><path data-name="Path 876" d="M42.877 226.079a2.9 2.9 0 00-.8-1.027 14.958 14.958 0 00-1.085-1.325.3.3 0 00-.493.286 4.2 4.2 0 00.745 1.437c.286.432.6.983 1.12 1.137a.418.418 0 00.513-.508z" fill="#b0bf69"/><path data-name="Path 877" d="M46.5 221.395a22.177 22.177 0 00-1.557 2.586 8.522 8.522 0 00-.61 1.4 4.893 4.893 0 00-.312-1.259 6.957 6.957 0 00-1.176-2.248c-.379-.451-1.159.149-.816.629.777 1.092.7 2.574 1.489 3.617a.443.443 0 00.7.031 1.708 1.708 0 00.062.442.471.471 0 00.78.206 7.8 7.8 0 00.947-2.2 18.655 18.655 0 011.464-2.639c.398-.614-.563-1.156-.971-.565z" fill="#b0bf69"/><path data-name="Path 878" d="M48.253 224.074c-.8.619-1.89 1.309-2.277 2.273a.465.465 0 00.569.569 4.008 4.008 0 001.254-.883c.43-.375.858-.751 1.3-1.111.607-.495-.248-1.312-.846-.848z" fill="#b0bf69"/></g></svg>