<svg xmlns="http://www.w3.org/2000/svg" width="27.592" height="25.074" viewBox="0 0 27.592 25.074"><path d="M26.857,21.007l-3.763,3.422a2.754,2.754,0,0,1-3.549,0L2.69,8.959a.565.565,0,0,1-.158-.245L.024.729a.535.535,0,0,1,.16-.56A.659.659,0,0,1,.627,0,.693.693,0,0,1,.8.024L9.578,2.305a.646.646,0,0,1,.269.144L26.857,17.781a2.138,2.138,0,0,1,0,3.226Zm-10.044-.725,2.308-2.1L7.07,7.232,6.2,8.8a.637.637,0,0,1-.561.315h-1ZM1.54,1.4,2.357,4,4.4,2.144ZM8.779,3.281l-3-.779L2.751,5.254,3.608,7.98H5.256L6.337,6.016a.6.6,0,0,1,.28-.255l2.162-.982v-1.5Zm1.254.937v.913a.567.567,0,0,1-.347.51l-1.73.786L20.008,17.378l2.308-2.1ZM25.972,18.573l-2.765-2.49L17.7,21.091,20.434,23.6a1.379,1.379,0,0,0,1.774,0l3.763-3.419a1.067,1.067,0,0,0,0-1.61Z" transform="translate(0 -0.002)"/></svg>