<svg xmlns="http://www.w3.org/2000/svg" width="44" height="44.398" viewBox="0 0 44 44.398"><circle cx="22" cy="22" r="22" fill="#3d324c"/><path d="M35.334,32.575a3.72,3.72,0,0,0-.054.712c0,1.477.122,3.376.214,5.052a19.428,19.428,0,0,1-4.823,2.687l-12.937.23a18.862,18.862,0,0,1-5.856-3.223A9.614,9.614,0,0,0,12.9,34.971,9.186,9.186,0,0,0,9.752,26.65,6.974,6.974,0,0,1,7.08,20.48c.13-2.5,2.113-5.067,3.514-7.073,2.779-4,7.287-9.079,12.539-9.415h.2a2.633,2.633,0,0,1,.765,0,8.5,8.5,0,0,1,3.062.765C32.273,6.916,36.154,11.164,38.8,15.81c.811,1.424,1.791,2.97,1.883,4.593.122,2.128-1.531,4-2.61,5.711a17.675,17.675,0,0,0-2.74,6.461Z" transform="translate(-1.653 -0.93)" fill="#805333"/><path d="M34.485,32.581c-.122.949.145,5.848.2,6.8a18.318,18.318,0,0,1-3.292,1.63l-12.983.268a19.367,19.367,0,0,1-4.715-2.35,12.11,12.11,0,0,0,1.3-3.95,9.951,9.951,0,0,0-2.71-8.321,7.517,7.517,0,0,1-2.3-6.17c.107-2.5,1.83-5.067,3.062-7.073C15.447,9.426,19.343,4.358,23.89,4h.122a1.156,1.156,0,0,1,.23,0h.528a6.843,6.843,0,0,1,2.626.765c4.424,2.189,7.8,6.438,10.1,11.084a12.559,12.559,0,0,1,1.63,4.593c.107,2.128-1.332,4-2.3,5.711a18.992,18.992,0,0,0-2.342,6.43Z" transform="translate(-2.334 -0.936)" fill="#a56a43"/><path d="M35.39,48.913a19.137,19.137,0,0,1-18.31,0,11.367,11.367,0,0,0,3.062-2.182,1.447,1.447,0,0,0,.421-.957A11.9,11.9,0,0,0,20.1,42.1H32.374a11.314,11.314,0,0,0-.49,3.621,1.454,1.454,0,0,0,.444.965A11.528,11.528,0,0,0,35.39,48.913Z" transform="translate(-4.006 -9.873)" fill="#fdd7ad"/><path d="M33.294,42.07a10.717,10.717,0,0,0-.436,2.143,12.472,12.472,0,0,1-4.47,3.69,3.506,3.506,0,0,1-2.526,0,12.364,12.364,0,0,1-4.47-3.7A13.013,13.013,0,0,0,21,42.07Z" transform="translate(-4.925 -9.866)" fill="#f9c795"/><path d="M32.732,35.389c-1.944,2.465-4.853,5.848-7.777,4.677C23,39.3,21.2,37.242,20.079,35.826,18.142,33.346,16.649,31,17.285,27.9a7.28,7.28,0,0,0,0-3.667c4.447-.712,7.111-2.45,8.7-4.195A9.53,9.53,0,0,0,28.17,15.87c.107-.521.054-.612.069,0a9.523,9.523,0,0,0,2.3,6.185A7.655,7.655,0,0,0,35.128,24.3a7.088,7.088,0,0,0,0,3.605C35.648,30.337,34.929,32.519,32.732,35.389Z" transform="translate(-4.019 -3.622)" fill="#fdd7ad"/><path d="M35.16,24.826a6.422,6.422,0,0,0-.176,1.531,8.275,8.275,0,0,1-7.035-6.384c-1.324,2.342-4.195,5.3-10.388,6.323a6.973,6.973,0,0,0-.191-1.531C22.116,24,24.65,21.971,26,20.172A9.53,9.53,0,0,0,28.225,16h.069a9.523,9.523,0,0,0,2.3,6.185,6.736,6.736,0,0,0,4.57,2.641Z" transform="translate(-4.074 -3.752)" fill="#f9c795"/><path d="M15.023,24.96a.766.766,0,0,1-.077-1.531,13.09,13.09,0,0,0,1.531-.2c10.257-1.669,10.349-8.811,10.311-8.053a.766.766,0,0,1,1.531.038c0,5.006,2.763,8.214,7.961,8.214a.765.765,0,1,1,0,1.531c-4.9,0-7.953-2.442-9.071-6.545-1.332,2.365-4.233,5.358-10.518,6.346a14.026,14.026,0,0,1-1.669.2Z" transform="translate(-3.335 -3.389)" fill="#805333"/><rect width="20" height="18" rx="4" transform="translate(24 26)" fill="#84b5cb"/><path d="M50.841,37.062V49.31a2.853,2.853,0,0,1-2.587,3.062H36.587A2.853,2.853,0,0,1,34,49.31V37.062A2.853,2.853,0,0,1,36.587,34H48.253a2.853,2.853,0,0,1,2.587,3.062Z" transform="translate(-7.974 -7.974)" fill="#9fc9d3"/><path d="M49.242,28.128V31.19H46.181V28.128a3.062,3.062,0,0,0-6.124,0V31.19H36.995c0-3-.222-4.47.926-6.285a6.124,6.124,0,0,1,11.321,3.223Z" transform="translate(-8.672 -5.164)" fill="#547580"/><path d="M46.44,47.051a1.531,1.531,0,0,1-1.386,2.136H43.524a1.531,1.531,0,0,1-1.408-2.136L43,44.219a2.3,2.3,0,1,1,2.526,0Z" transform="translate(-9.843 -9.382)" fill="#2c3e50"/></svg>