<svg xmlns="http://www.w3.org/2000/svg" xmlns:xlink="http://www.w3.org/1999/xlink" width="80.166" height="65.607"><defs><linearGradient id="a" x1=".141" y1="1.023" x2=".929" y2="-.01" gradientUnits="objectBoundingBox"><stop offset="0" stop-color="gray" stop-opacity=".251"/><stop offset=".54" stop-color="gray" stop-opacity=".122"/><stop offset="1" stop-color="gray" stop-opacity=".102"/></linearGradient><linearGradient id="b" x1=".5" y1="1" x2=".5" y2="0" xlink:href="#a"/><linearGradient id="c" x1="-1.429" y1="1.019" x2="-.642" y2="-.015" xlink:href="#a"/><linearGradient id="d" x1="-2.26" y1="1" x2="-2.26" y2="0" xlink:href="#a"/><linearGradient id="e" x1=".141" y1="1.022" x2=".928" y2="-.011" xlink:href="#a"/></defs><g transform="translate(0 -.01)"><path d="M740.879 63l-28.184.069a1.158 1.158 0 00-1.155 1.16l.124 52.713a1.158 1.158 0 001.166 1.154l28.184-.069a1.158 1.158 0 001.155-1.16l-.128-52.714A1.158 1.158 0 00740.879 63z" transform="translate(-662.002 -62.99)" fill="url(#a)" opacity=".5"/><rect width="29.677" height="53.567" rx="1" transform="rotate(-.14 351.56 -20441.088)" fill="#fff"/><path d="M72.241 2.088a2.406 2.406 0 01-2.366 2.052l-10.251.024a2.406 2.406 0 01-2.373-2.04l-5.429.014a1.127 1.127 0 00-1.125 1.13l.118 48.626a1.127 1.127 0 001.132 1.125l25.938-.063a1.127 1.127 0 001.125-1.13L78.892 3.2a1.128 1.128 0 00-1.13-1.125z" fill="#6c63ff" opacity=".3"/><path d="M809.782 140.879a8.646 8.646 0 10-13.47 7.176v.038a2.962 2.962 0 00.981.624l.011-.038a8.086 8.086 0 004.069.9h.042a7.942 7.942 0 003.771-.859l.026-.065a3.079 3.079 0 00.815-.559l.014-.1a8.637 8.637 0 003.741-7.117z" transform="translate(-736.091 -126.356)" fill="url(#b)" opacity=".5"/><circle cx="8.387" cy="8.387" r="8.387" transform="translate(56.66 6.138)" fill="#f5f5f5"/><rect width="6.613" height=".414" rx=".207" transform="rotate(-.86 217.148 -4076.784)" fill="#dbdbdb"/><circle cx=".248" cy=".248" r=".248" transform="rotate(-.86 207.708 -4594.401)" fill="#dbdbdb"/><path fill="#f5f5f5" d="M57.672 26.277h13.732v1.526H57.672zM54.62 29.329h19.835v1.526H54.62z"/><path d="M128.409 63l28.184.069a1.158 1.158 0 011.155 1.16l-.124 52.713a1.158 1.158 0 01-1.166 1.154l-28.184-.069a1.158 1.158 0 01-1.155-1.16l.128-52.714A1.158 1.158 0 01128.409 63z" transform="translate(-127.12 -62.99)" fill="url(#c)" opacity=".5"/><rect width="29.677" height="53.567" rx="1" transform="rotate(-179.86 15.077 27.164)" fill="#fff"/><path d="M7.924 2.088A2.406 2.406 0 0010.29 4.14l10.25.025a2.406 2.406 0 002.373-2.04l5.429.014a1.127 1.127 0 011.125 1.13l-.118 48.626a1.127 1.127 0 01-1.131 1.124L2.28 52.956a1.127 1.127 0 01-1.125-1.13L1.273 3.2a1.127 1.127 0 011.13-1.125z" fill="#6c63ff" opacity=".3"/><path d="M203.5 140.879a8.646 8.646 0 1113.47 7.176l-.005.038a2.96 2.96 0 01-.981.624l-.011-.038a8.085 8.085 0 01-4.069.9h-.042a7.941 7.941 0 01-3.771-.859l-.026-.065a3.079 3.079 0 01-.815-.559l-.014-.1a8.636 8.636 0 01-3.736-7.117z" transform="translate(-197.026 -126.356)" fill="url(#d)" opacity=".5"/><circle cx="8.387" cy="8.387" r="8.387" transform="translate(6.734 6.138)" fill="#f5f5f5"/><rect width="6.613" height=".414" rx=".207" transform="rotate(-179.14 9.485 1.535)" fill="#dbdbdb"/><circle cx=".248" cy=".248" r=".248" transform="rotate(-89.14 6.907 -3.876)" fill="#dbdbdb"/><path fill="#f5f5f5" d="M22.495 27.803H8.763v-1.526h13.732zM25.546 30.855H5.711v-1.526h19.835z"/><path d="M447.879 187l-28.184.069a1.158 1.158 0 00-1.155 1.16l.124 52.713a1.158 1.158 0 001.165 1.154l28.184-.069a1.158 1.158 0 001.155-1.16l-.128-52.714a1.158 1.158 0 00-1.161-1.153z" transform="translate(-393.838 -176.479)" fill="url(#e)" opacity=".5"/><rect width="29.677" height="53.567" rx="1" transform="rotate(-.14 4640.825 -10271.975)" fill="#fff"/><path d="M47.405 12.599a2.4 2.4 0 01-2.366 2.052l-10.251.024a2.406 2.406 0 01-2.373-2.04l-5.429.014a1.127 1.127 0 00-1.125 1.13l.118 48.627a1.127 1.127 0 001.132 1.125l25.938-.063a1.127 1.127 0 001.125-1.13l-.118-48.626a1.127 1.127 0 00-1.13-1.125z" fill="#6c63ff" opacity=".4"/><path d="M516.782 264.879a8.646 8.646 0 10-13.47 7.176l.005.038a2.959 2.959 0 00.981.624l.011-.038a8.085 8.085 0 004.069.9h.042a7.94 7.94 0 003.771-.86l.026-.065a3.077 3.077 0 00.816-.559l.014-.1a8.636 8.636 0 003.735-7.116z" transform="translate(-467.927 -239.845)" fill="url(#b)" opacity=".5"/><circle cx="8.387" cy="8.387" r="8.387" transform="translate(31.824 16.649)" fill="#f5f5f5"/><rect width="6.613" height=".414" rx=".207" transform="rotate(-.86 904.924 -2416.844)" fill="#dbdbdb"/><circle cx=".248" cy=".248" r=".248" transform="rotate(-.86 895.484 -2934.529)" fill="#dbdbdb"/><path fill="#f5f5f5" d="M32.836 36.788h13.732v1.526H32.836zM29.784 39.84h19.835v1.526H29.784z"/><path d="M37.006 28.484s-2 .164-1.47 3.8a2.873 2.873 0 00.951.605l1.124-3.8zM43.49 28.484s2 .164 1.47 3.8a2.872 2.872 0 01-.951.605l-1.124-3.8z" fill="#fda57d"/><path d="M37.093 22.518s-.951 2.767-1.47 2.507c0 0 5 4.323 9.424 0a13.179 13.179 0 00-1.9-2.507z" fill="#333"/><circle cx="3.718" cy="3.718" r="3.718" transform="translate(36.584 18.541)" fill="#333"/><path d="M43.452 28.484h-6.484l-.605 2.594s-.355 1.2.085 1.729 4.573 1.729 7.608.085a3.384 3.384 0 00.085-2.161c-.346-1.21-.085-.085-.085-.085z" opacity=".1"/><path d="M43.539 28.484h-6.484l-.605 2.594s-.355 1.2.085 1.729 4.573 1.729 7.608.085a3.382 3.382 0 00.085-2.161c-.346-1.21-.085-.085-.085-.085z" opacity=".1"/><path d="M43.49 28.484h-6.487l-.605 2.594s-.355 1.2.085 1.729 4.573 1.729 7.608.085a3.382 3.382 0 00.085-2.161c-.346-1.21-.085-.085-.085-.085z" fill="#6c63ff"/><path d="M38.991 26.332h2.594v2.072a1.3 1.3 0 01-1.3 1.3 1.3 1.3 0 01-1.3-1.3z" opacity=".1"/><path d="M38.991 26.236h2.594v2.075a1.3 1.3 0 01-1.3 1.3 1.3 1.3 0 01-1.3-1.3v-2.075z" fill="#fda57d"/><path d="M39 26.611a3.729 3.729 0 002.594.007v-.319H39z" opacity=".1"/><circle cx="3.718" cy="3.718" r="3.718" transform="translate(36.584 19.348)" fill="#fda57d"/><path d="M36.747 21.653h7.09s-.6-2.863-3.285-2.68a4.806 4.806 0 00-3.805 2.68z" fill="#333"/><ellipse cx=".346" cy=".648" rx=".346" ry=".648" transform="translate(36.315 22.259)" fill="#fda57d"/><ellipse cx=".346" cy=".648" rx=".346" ry=".648" transform="translate(43.577 22.259)" fill="#fda57d"/><path d="M36.747 21.75h7.09s-.6-2.862-3.285-2.68a4.806 4.806 0 00-3.805 2.68z" opacity=".1"/><path d="M61.418 17.804s-2 .164-1.47 3.8a2.873 2.873 0 00.951.605l1.124-3.8zM67.902 17.804s2 .164 1.47 3.8a2.871 2.871 0 01-.951.605l-1.124-3.8z" fill="#4d8af0"/><circle cx="3.718" cy="3.718" r="3.718" transform="translate(60.996 7.861)" fill="#333"/><path d="M67.864 17.804H61.38l-.605 2.594s-.355 1.2.085 1.729 4.573 1.729 7.608.085a3.382 3.382 0 00.085-2.161c-.346-1.21-.085-.085-.085-.085z" fill="#4d8af0"/><path d="M67.951 17.804h-6.484l-.605 2.594s-.355 1.2.085 1.729 4.573 1.729 7.608.085a3.384 3.384 0 00.085-2.161c-.346-1.21-.085-.085-.085-.085z" fill="#4d8af0"/><path d="M67.902 17.804h-6.487l-.605 2.594s-.355 1.2.085 1.729 4.573 1.729 7.608.085a3.384 3.384 0 00.085-2.161c-.346-1.21-.085-.085-.085-.085z" fill="#4d8af0"/><path d="M63.403 15.652h2.594v2.073a1.3 1.3 0 01-1.3 1.3 1.3 1.3 0 01-1.3-1.3z" opacity=".1"/><path d="M63.403 15.556h2.594v2.075a1.3 1.3 0 01-1.3 1.3 1.3 1.3 0 01-1.3-1.3z" fill="#fdb797"/><path d="M63.412 15.93a3.73 3.73 0 002.594.007v-.319h-2.594z" opacity=".1"/><circle cx="3.718" cy="3.718" r="3.718" transform="translate(60.996 8.668)" fill="#fdb797"/><path d="M61.159 11.07h7.089s-.605-2.863-3.285-2.68a4.806 4.806 0 00-3.804 2.68z" opacity=".1"/><path d="M61.159 10.973h7.089s-.605-2.862-3.285-2.68a4.806 4.806 0 00-3.804 2.68z" fill="#333"/><ellipse cx=".346" cy=".648" rx=".346" ry=".648" transform="translate(60.726 11.579)" fill="#fdb797"/><ellipse cx=".346" cy=".648" rx=".346" ry=".648" transform="translate(67.989 11.579)" fill="#fdb797"/><path d="M61.709 9.079a1.316 1.316 0 01.478-.709 2.466 2.466 0 01.606-.259 4.635 4.635 0 00.881-.424 5.659 5.659 0 01.959-.557 3.18 3.18 0 011.879.057 1.581 1.581 0 01.439.164 1.657 1.657 0 01.39.377l.978 1.182a1.869 1.869 0 01.243.339 1.174 1.174 0 01.111.387.892.892 0 01-.938 1.071 3.117 3.117 0 01-.966-.177 19.043 19.043 0 00-3.09-.7 8.716 8.716 0 00-1.572-.051c-.164.011-.382.085-.482-.085-.083-.132.044-.471.084-.615z" fill="#333"/><path d="M11.831 17.719s-2 .164-1.47 3.8a2.873 2.873 0 00.951.605l1.124-3.8zM18.316 17.719s2 .164 1.47 3.8a2.871 2.871 0 01-.951.605l-1.124-3.8z" fill="#be7c5e"/><path d="M11.918 11.753s-.154.448-.371.965c-.476 1.133.067 5.485 1.205 5.949a6.469 6.469 0 004.7.218c1.516-.553 1.983-5.51.912-6.713a8.07 8.07 0 00-.394-.419z" fill="#333"/><circle cx="3.718" cy="3.718" r="3.718" transform="translate(11.409 7.776)" fill="#333"/><path d="M18.277 17.719h-6.484l-.605 2.594s-.355 1.2.085 1.729 4.573 1.729 7.608.085a3.384 3.384 0 00.085-2.161c-.346-1.21-.085-.085-.085-.085z" opacity=".1"/><path d="M18.364 17.719H11.88l-.605 2.594s-.355 1.2.085 1.729 4.573 1.729 7.608.085a3.383 3.383 0 00.085-2.161c-.346-1.21-.085-.085-.085-.085z" opacity=".1"/><path d="M18.316 17.719h-6.487l-.605 2.594s-.355 1.2.085 1.729 4.573 1.729 7.608.085a3.384 3.384 0 00.085-2.161c-.346-1.21-.085-.085-.085-.085z" fill="#f55f44"/><path d="M13.817 15.568h2.594v2.072a1.3 1.3 0 01-1.3 1.3 1.3 1.3 0 01-1.3-1.3z" opacity=".1"/><path d="M13.817 15.471h2.594v2.075a1.3 1.3 0 01-1.3 1.3 1.3 1.3 0 01-1.3-1.3z" fill="#be7c5e"/><path d="M13.825 15.846a3.73 3.73 0 002.594.007v-.319h-2.594z" opacity=".1"/><circle cx="3.718" cy="3.718" r="3.718" transform="translate(11.409 8.583)" fill="#be7c5e"/><path d="M11.572 10.888h7.09s-.605-2.863-3.285-2.68a4.806 4.806 0 00-3.805 2.68z" fill="#333"/><ellipse cx=".346" cy=".648" rx=".346" ry=".648" transform="translate(11.14 11.494)" fill="#be7c5e"/><ellipse cx=".346" cy=".648" rx=".346" ry=".648" transform="translate(18.402 11.494)" fill="#be7c5e"/><path d="M11.572 10.985h7.09s-.605-2.863-3.285-2.68a4.806 4.806 0 00-3.805 2.68z" opacity=".1"/></g></svg>