<svg id="Component_3_1" data-name="Component 3 – 1" xmlns="http://www.w3.org/2000/svg" width="340.997" height="122.41" viewBox="0 0 340.997 122.41">
  <g id="Group_40" data-name="Group 40" transform="translate(402.94 -26.693) rotate(90)" style="isolation: isolate">
    <path id="Path_40" data-name="Path 40" d="M142.621,295.662a6.492,6.492,0,1,0,6.492,6.492A6.492,6.492,0,0,0,142.621,295.662Zm0,9.655a3.163,3.163,0,1,1,3.163-3.163A3.163,3.163,0,0,1,142.621,305.317Z" transform="translate(-67.042 -25.561)" fill="#536be6" style="mix-blend-mode: color-dodge;isolation: isolate"/>
    <path id="Path_42" data-name="Path 42" d="M246.7,485.759a9.958,9.958,0,1,0,9.957,9.958A9.958,9.958,0,0,0,246.7,485.759Zm0,14.809a4.851,4.851,0,1,1,4.851-4.851A4.851,4.851,0,0,1,246.7,500.568Z" transform="translate(-116.304 -102.735)" fill="#fff" style="mix-blend-mode: color-dodge;isolation: isolate"/>
    <g id="Group_38" data-name="Group 38" transform="translate(120.889 89.132)">
      <path id="Path_44" data-name="Path 44" d="M296.167,197.659a2.875,2.875,0,1,1-4.067,0A2.875,2.875,0,0,1,296.167,197.659Z" transform="translate(-291.258 -174.354)" fill="#fff"/>
      <path id="Path_45" data-name="Path 45" d="M305.447,188.379a2.875,2.875,0,1,1-4.066,0A2.875,2.875,0,0,1,305.447,188.379Z" transform="translate(-289.307 -176.306)" fill="#fff"/>
      <path id="Path_46" data-name="Path 46" d="M314.727,179.1a2.876,2.876,0,1,1-4.066,0A2.877,2.877,0,0,1,314.727,179.1Z" transform="translate(-287.356 -178.257)" fill="#fff"/>
    </g>
    <path id="Path_49" data-name="Path 49" d="M165.74,154.7h-3.472a2.164,2.164,0,0,1-2.164-2.164v-3.471a2.163,2.163,0,0,0-2.163-2.164h-2a2.163,2.163,0,0,0-2.163,2.164v3.471a2.164,2.164,0,0,1-2.164,2.164h-3.472a2.163,2.163,0,0,0-2.163,2.164v2a2.164,2.164,0,0,0,2.163,2.164h3.472a2.164,2.164,0,0,1,2.164,2.163v3.472a2.164,2.164,0,0,0,2.163,2.164h2a2.164,2.164,0,0,0,2.163-2.164v-3.472a2.164,2.164,0,0,1,2.164-2.163h3.472a2.164,2.164,0,0,0,2.163-2.164v-2A2.163,2.163,0,0,0,165.74,154.7Z" transform="translate(-70.006 42.597)" fill="#fff"/>
    <path id="Path_50" data-name="Path 50" d="M362.266,438.794H358.8a2.163,2.163,0,0,1-2.164-2.163v-3.472a2.164,2.164,0,0,0-2.164-2.164h-2a2.164,2.164,0,0,0-2.164,2.164v3.472a2.163,2.163,0,0,1-2.164,2.163h-3.471a2.164,2.164,0,0,0-2.164,2.164v2a2.164,2.164,0,0,0,2.164,2.164h3.471a2.164,2.164,0,0,1,2.164,2.164v3.471a2.164,2.164,0,0,0,2.164,2.164h2a2.164,2.164,0,0,0,2.164-2.164v-3.471a2.164,2.164,0,0,1,2.164-2.164h3.471a2.164,2.164,0,0,0,2.164-2.164v-2A2.164,2.164,0,0,0,362.266,438.794Z" transform="translate(-288.852 -79.144)" fill="#fff"/>
  </g>
  <g id="Group_40-2" data-name="Group 40" transform="translate(382.918) rotate(90)" style="isolation: isolate">
    <g id="Group_23" data-name="Group 23" transform="translate(0 64.281)">
      <g id="Group_11" data-name="Group 11" transform="translate(28.891 15.162)">
        <path id="Path_11" data-name="Path 11" d="M133.891,76.258a1.161,1.161,0,1,1,1.162,1.156A1.159,1.159,0,0,1,133.891,76.258Z" transform="translate(-133.891 -75.1)" fill="#fff"/>
      </g>
      <g id="Group_12" data-name="Group 12" transform="translate(18.994 15.162)">
        <path id="Path_12" data-name="Path 12" d="M112.863,76.258a1.159,1.159,0,1,1,1.159,1.156A1.157,1.157,0,0,1,112.863,76.258Z" transform="translate(-112.863 -75.1)" fill="#fff"/>
      </g>
      <g id="Group_13" data-name="Group 13" transform="translate(28.891 7.759)">
        <path id="Path_13" data-name="Path 13" d="M133.891,60.53a1.161,1.161,0,1,1,1.162,1.159A1.162,1.162,0,0,1,133.891,60.53Z" transform="translate(-133.891 -59.371)" fill="#fff"/>
      </g>
      <g id="Group_14" data-name="Group 14" transform="translate(18.994 7.759)">
        <path id="Path_14" data-name="Path 14" d="M112.863,60.53a1.159,1.159,0,1,1,1.159,1.159A1.159,1.159,0,0,1,112.863,60.53Z" transform="translate(-112.863 -59.371)" fill="#fff"/>
      </g>
      <g id="Group_15" data-name="Group 15" transform="translate(28.891 0)">
        <path id="Path_15" data-name="Path 15" d="M133.891,44.044a1.161,1.161,0,1,1,1.162,1.159A1.161,1.161,0,0,1,133.891,44.044Z" transform="translate(-133.891 -42.885)" fill="#fff"/>
      </g>
      <g id="Group_16" data-name="Group 16" transform="translate(18.994 0)">
        <path id="Path_16" data-name="Path 16" d="M112.863,44.044a1.159,1.159,0,1,1,1.159,1.159A1.158,1.158,0,0,1,112.863,44.044Z" transform="translate(-112.863 -42.885)" fill="#fff"/>
      </g>
      <g id="Group_17" data-name="Group 17" transform="translate(9.898 15.162)">
        <path id="Path_17" data-name="Path 17" d="M93.536,76.258a1.159,1.159,0,1,1,1.16,1.156A1.157,1.157,0,0,1,93.536,76.258Z" transform="translate(-93.536 -75.1)" fill="#fff"/>
      </g>
      <g id="Group_18" data-name="Group 18" transform="translate(0 15.162)">
        <path id="Path_18" data-name="Path 18" d="M72.506,76.258a1.16,1.16,0,1,1,1.159,1.156A1.157,1.157,0,0,1,72.506,76.258Z" transform="translate(-72.506 -75.1)" fill="#fff"/>
      </g>
      <g id="Group_19" data-name="Group 19" transform="translate(9.898 7.759)">
        <path id="Path_19" data-name="Path 19" d="M93.536,60.53a1.159,1.159,0,1,1,1.16,1.159A1.159,1.159,0,0,1,93.536,60.53Z" transform="translate(-93.536 -59.371)" fill="#fff"/>
      </g>
      <g id="Group_20" data-name="Group 20" transform="translate(0 7.759)">
        <path id="Path_20" data-name="Path 20" d="M72.506,60.53a1.16,1.16,0,1,1,1.159,1.159A1.159,1.159,0,0,1,72.506,60.53Z" transform="translate(-72.506 -59.371)" fill="#fff"/>
      </g>
      <g id="Group_21" data-name="Group 21" transform="translate(9.898 0)">
        <path id="Path_21" data-name="Path 21" d="M93.536,44.044A1.159,1.159,0,1,1,94.7,45.2,1.159,1.159,0,0,1,93.536,44.044Z" transform="translate(-93.536 -42.885)" fill="#fff"/>
      </g>
      <g id="Group_22" data-name="Group 22" transform="translate(0 0)">
        <path id="Path_22" data-name="Path 22" d="M72.506,44.044A1.16,1.16,0,1,1,73.665,45.2,1.158,1.158,0,0,1,72.506,44.044Z" transform="translate(-72.506 -42.885)" fill="#fff"/>
      </g>
    </g>
    <path id="Path_40-2" data-name="Path 40" d="M140.5,295.662a4.37,4.37,0,1,0,4.37,4.37A4.37,4.37,0,0,0,140.5,295.662Zm0,6.5a2.129,2.129,0,1,1,2.129-2.129A2.129,2.129,0,0,1,140.5,302.161Z" transform="translate(-106.185 -86.414)" fill="#536be6" style="mix-blend-mode: color-dodge;isolation: isolate"/>
    <path id="Path_42-2" data-name="Path 42" d="M243.449,485.759a6.7,6.7,0,1,0,6.7,6.7A6.7,6.7,0,0,0,243.449,485.759Zm0,9.968a3.265,3.265,0,1,1,3.265-3.265A3.265,3.265,0,0,1,243.449,495.727Z" transform="translate(-172.236 -161.757)" fill="#fff" style="mix-blend-mode: color-dodge;isolation: isolate"/>
    <g id="Group_38-2" data-name="Group 38" transform="translate(52.023 41.922)">
      <path id="Path_44-2" data-name="Path 44" d="M294.562,197.384a1.935,1.935,0,1,1-2.737,0A1.935,1.935,0,0,1,294.562,197.384Z" transform="translate(-291.258 -181.698)" fill="#fff"/>
      <path id="Path_45-2" data-name="Path 45" d="M303.842,188.1a1.935,1.935,0,1,1-2.737,0A1.935,1.935,0,0,1,303.842,188.1Z" transform="translate(-292.978 -179.977)" fill="#fff"/>
      <path id="Path_46-2" data-name="Path 46" d="M313.122,178.823a1.936,1.936,0,1,1-2.737,0A1.936,1.936,0,0,1,313.122,178.823Z" transform="translate(-294.699 -178.257)" fill="#fff"/>
    </g>
    <path id="Path_49-2" data-name="Path 49" d="M159.281,152.155h-2.337a1.457,1.457,0,0,1-1.457-1.457v-2.336a1.456,1.456,0,0,0-1.456-1.457h-1.344a1.456,1.456,0,0,0-1.456,1.457V150.7a1.457,1.457,0,0,1-1.457,1.457h-2.337a1.456,1.456,0,0,0-1.456,1.457v1.343a1.456,1.456,0,0,0,1.456,1.457h2.337a1.456,1.456,0,0,1,1.457,1.456V160.2a1.456,1.456,0,0,0,1.456,1.457h1.344a1.456,1.456,0,0,0,1.456-1.457v-2.337a1.456,1.456,0,0,1,1.457-1.456h2.337a1.456,1.456,0,0,0,1.456-1.457v-1.343A1.456,1.456,0,0,0,159.281,152.155Z" transform="translate(-122.17 -22.281)" fill="#fff"/>
    <path id="Path_50-2" data-name="Path 50" d="M355.807,436.245h-2.336a1.456,1.456,0,0,1-1.457-1.456v-2.337a1.457,1.457,0,0,0-1.457-1.457h-1.343a1.457,1.457,0,0,0-1.457,1.457v2.337a1.456,1.456,0,0,1-1.457,1.456h-2.336a1.457,1.457,0,0,0-1.457,1.457v1.343a1.457,1.457,0,0,0,1.457,1.457H346.3a1.457,1.457,0,0,1,1.457,1.457v2.336a1.457,1.457,0,0,0,1.457,1.457h1.343a1.457,1.457,0,0,0,1.457-1.457v-2.336a1.457,1.457,0,0,1,1.457-1.457h2.336a1.457,1.457,0,0,0,1.457-1.457V437.7A1.457,1.457,0,0,0,355.807,436.245Z" transform="translate(-325.95 -150.302)" fill="#fff"/>
    <path id="Path_51" data-name="Path 51" d="M545.624,33.049h-1.515a.945.945,0,0,1-.945-.945V30.589a.944.944,0,0,0-.944-.945h-.871a.945.945,0,0,0-.945.945V32.1a.944.944,0,0,1-.945.945h-1.516a.945.945,0,0,0-.945.945v.871a.944.944,0,0,0,.945.945h1.516a.945.945,0,0,1,.945.945V38.27a.945.945,0,0,0,.945.945h.871a.944.944,0,0,0,.944-.945V36.755a.945.945,0,0,1,.945-.945h1.515a.944.944,0,0,0,.945-.945v-.871A.945.945,0,0,0,545.624,33.049Z" transform="translate(-480.733 52.107)" fill="#fff"/>
  </g>
  <g id="Group_10242" data-name="Group 10242" transform="translate(377.918 31.708) rotate(90)" style="isolation: isolate">
    <path id="Path_40-3" data-name="Path 40" d="M140.5,295.662a4.37,4.37,0,1,0,4.37,4.37A4.37,4.37,0,0,0,140.5,295.662Zm0,6.5a2.129,2.129,0,1,1,2.129-2.129A2.129,2.129,0,0,1,140.5,302.161Z" transform="translate(-106.185 -86.414)" fill="#536be6" style="mix-blend-mode: color-dodge;isolation: isolate"/>
    <path id="Path_42-3" data-name="Path 42" d="M243.449,485.759a6.7,6.7,0,1,0,6.7,6.7A6.7,6.7,0,0,0,243.449,485.759Zm0,9.968a3.265,3.265,0,1,1,3.265-3.265A3.265,3.265,0,0,1,243.449,495.727Z" transform="translate(-172.236 -161.757)" fill="#fff" style="mix-blend-mode: color-dodge;isolation: isolate"/>
    <g id="Group_38-3" data-name="Group 38" transform="translate(52.023 41.922)">
      <path id="Path_44-3" data-name="Path 44" d="M294.562,197.384a1.935,1.935,0,1,1-2.737,0A1.935,1.935,0,0,1,294.562,197.384Z" transform="translate(-291.258 -181.698)" fill="#fff"/>
      <path id="Path_45-3" data-name="Path 45" d="M303.842,188.1a1.935,1.935,0,1,1-2.737,0A1.935,1.935,0,0,1,303.842,188.1Z" transform="translate(-292.978 -179.977)" fill="#fff"/>
      <path id="Path_46-3" data-name="Path 46" d="M313.122,178.823a1.936,1.936,0,1,1-2.737,0A1.936,1.936,0,0,1,313.122,178.823Z" transform="translate(-294.699 -178.257)" fill="#fff"/>
    </g>
    <path id="Path_49-3" data-name="Path 49" d="M159.281,152.155h-2.337a1.457,1.457,0,0,1-1.457-1.457v-2.336a1.456,1.456,0,0,0-1.456-1.457h-1.344a1.456,1.456,0,0,0-1.456,1.457V150.7a1.457,1.457,0,0,1-1.457,1.457h-2.337a1.456,1.456,0,0,0-1.456,1.457v1.343a1.456,1.456,0,0,0,1.456,1.457h2.337a1.456,1.456,0,0,1,1.457,1.456V160.2a1.456,1.456,0,0,0,1.456,1.457h1.344a1.456,1.456,0,0,0,1.456-1.457v-2.337a1.456,1.456,0,0,1,1.457-1.456h2.337a1.456,1.456,0,0,0,1.456-1.457v-1.343A1.456,1.456,0,0,0,159.281,152.155Z" transform="translate(-122.17 -22.281)" fill="#fff"/>
    <path id="Path_50-3" data-name="Path 50" d="M355.807,436.245h-2.336a1.456,1.456,0,0,1-1.457-1.456v-2.337a1.457,1.457,0,0,0-1.457-1.457h-1.343a1.457,1.457,0,0,0-1.457,1.457v2.337a1.456,1.456,0,0,1-1.457,1.456h-2.336a1.457,1.457,0,0,0-1.457,1.457v1.343a1.457,1.457,0,0,0,1.457,1.457H346.3a1.457,1.457,0,0,1,1.457,1.457v2.336a1.457,1.457,0,0,0,1.457,1.457h1.343a1.457,1.457,0,0,0,1.457-1.457v-2.336a1.457,1.457,0,0,1,1.457-1.457h2.336a1.457,1.457,0,0,0,1.457-1.457V437.7A1.457,1.457,0,0,0,355.807,436.245Z" transform="translate(-318.95 -143.302)" fill="#fff"/>
    <path id="Path_51-2" data-name="Path 51" d="M545.624,33.049h-1.515a.945.945,0,0,1-.945-.945V30.589a.944.944,0,0,0-.944-.945h-.871a.945.945,0,0,0-.945.945V32.1a.944.944,0,0,1-.945.945h-1.516a.945.945,0,0,0-.945.945v.871a.944.944,0,0,0,.945.945h1.516a.945.945,0,0,1,.945.945V38.27a.945.945,0,0,0,.945.945h.871a.944.944,0,0,0,.944-.945V36.755a.945.945,0,0,1,.945-.945h1.515a.944.944,0,0,0,.945-.945v-.871A.945.945,0,0,0,545.624,33.049Z" transform="translate(-489.733 70.107)" fill="#fff"/>
  </g>
</svg>
