<svg xmlns="http://www.w3.org/2000/svg" width="23.517" height="23.517" viewBox="0 0 23.517 23.517"><circle cx="11.758" cy="11.758" r="11.758" transform="translate(0 0)" fill="#e24c4b"/><path d="M70.722,58.965A11.793,11.793,0,0,1,58.963,70.724a11.57,11.57,0,0,1-9.186-4.409,11.6,11.6,0,0,0,7.349,2.572A11.793,11.793,0,0,0,68.884,57.128a11.6,11.6,0,0,0-2.572-7.349A11.57,11.57,0,0,1,70.722,58.965Z" transform="translate(-47.205 -47.207)" fill="#d1403f"/><path d="M110.7,123.321l-7.643,8.378a1.255,1.255,0,0,1-1.911,0l-3.234-3.6a1.3,1.3,0,0,1,1.911-1.764l2.278,2.572,6.688-7.275a1.289,1.289,0,0,1,1.837-.073A1.267,1.267,0,0,1,110.7,123.321Z" transform="translate(-92.547 -114.943)" fill="#fff"/></svg>