<svg xmlns="http://www.w3.org/2000/svg" width="44" height="44" viewBox="0 0 44 44"><g transform="translate(0.284)"><circle cx="22" cy="22" r="22" transform="translate(-0.284)" fill="#69b0ee"/></g><g transform="translate(8.138 9.528)"><path d="M35.192,96.925H54.87v.805a.28.28,0,0,1-.28.28H35.472a.28.28,0,0,1-.28-.28v-.805Z" transform="translate(-31.027 -73.35)" fill="#dbd8dd"/><g transform="translate(2.041 1.26)"><path d="M0,0H1.121A.28.28,0,0,1,1.4.28v1.5a.28.28,0,0,1-.28.28H0V0Z" transform="translate(1.401 3.741) rotate(180)" fill="#eeefee"/><path d="M94.928,36.508h1.121a.28.28,0,0,1,.28.28v1.5a.28.28,0,0,1-.28.28H94.928Z" transform="translate(-72.402 -34.827)" fill="#eeefee"/><path d="M32.033,31.587H53.928v21.8a.934.934,0,0,1-.934.934H32.967a.934.934,0,0,1-.934-.934v-21.8Z" transform="translate(-30.988 -31.587)" fill="#eeefee"/></g><path d="M53.924,31.589V37.8H47.506a1.751,1.751,0,0,0-1.751,1.751v4.925a1.074,1.074,0,0,1-2.147,0V39.408a1.284,1.284,0,1,0-2.568,0v3.571a1.166,1.166,0,1,1-2.332,0V41.087a1.145,1.145,0,0,0-2.29,0v1.448a1.05,1.05,0,0,1-2.1,0V39.267a1.844,1.844,0,0,0-1.844-1.844h-.444V31.589Z" transform="translate(-28.944 -30.328)" fill="#ef5261"/><path d="M51,39.545A16,16,0,0,1,48.687,47.1c-2.138,3.372-5.544,5.405-10.056,6.061a11.326,11.326,0,0,1-3.259,0c-4.513-.657-7.92-2.691-10.058-6.061A16,16,0,0,1,23,39.545a1,1,0,0,1,.279-.742,1.016,1.016,0,0,1,.731-.312h1.029v.841H24.009a.171.171,0,0,0-.123.053.167.167,0,0,0-.046.123c.122,2.7,1.325,11.236,11.447,12.8a11.223,11.223,0,0,0,3.43,0c10.121-1.565,11.325-10.1,11.446-12.8a.167.167,0,0,0-.046-.123.171.171,0,0,0-.123-.053H48.964V38.49h1.028a1.016,1.016,0,0,1,.731.313,1,1,0,0,1,.28.742Z" transform="translate(-22.997 -34.872)" fill="#575b6d"/><rect width="24.416" height="1.914" rx="0.957" transform="translate(1.826)" fill="#ef5261"/><path d="M32.033,33.5H53.927v.654H32.033Z" transform="translate(-28.947 -31.587)" fill="#da364c"/></g></svg>