<svg xmlns="http://www.w3.org/2000/svg" width="34" height="34" viewBox="0 0 34 34"><g transform="translate(0 0)"><g transform="translate(0 0)"><circle cx="17" cy="17" r="17" fill="#fcc8bc"/></g><g transform="translate(0 0)"><circle cx="17" cy="17" r="17" fill="#db1b1b"/><path d="M19.445,32.942a16.593,16.593,0,1,1,0-32.7,16.593,16.593,0,0,0,0,32.7Z" transform="translate(0 0)" fill="#c41c1c"/><path d="M76.956,127.338a7.83,7.83,0,0,0,3.772-.961,9.463,9.463,0,1,1,0-13.828,7.875,7.875,0,1,0-3.772,14.789Z" transform="translate(-60.603 -102.87)" fill="#fff"/><path d="M308.2,194.02l2.659,2.288,3-1.822-1.354,3.236,2.659,2.287-3.5-.288-1.354,3.235-.806-3.413-3.5-.288,3-1.822Z" transform="translate(-286.176 -181.444)" fill="#fff"/><path d="M66.3,156.076A16.528,16.528,0,0,0,67.808,163a9.463,9.463,0,0,1,0-13.851A16.528,16.528,0,0,0,66.3,156.076Z" transform="translate(-60.594 -139.483)" fill="#dbdbdb"/><g transform="translate(26.503 6.744)"><circle cx="1.055" cy="1.055" r="1.055" transform="translate(1.246 1.246)" fill="#e23b3b"/><circle cx="0.747" cy="0.747" r="0.747" fill="#e23b3b"/></g></g></g></svg>